G04 DesignSpark PCB Gerber Version 10.0 Build 5299*
%FSLAX35Y35*%
%MOMM*%
%ADD94R,1.50240X4.05240*%
%ADD122R,1.67640X1.67640*%
%ADD109C,1.55240*%
%ADD19C,1.67640*%
%ADD90C,1.95240*%
%ADD100C,2.15240*%
%ADD92C,2.35240*%
%ADD106C,3.75240*%
%ADD121O,2.15240X1.75240*%
%ADD93R,3.15240X1.50240*%
%ADD101C,5.40240*%
%ADD108R,1.57240X1.55240*%
%ADD110R,1.68240X1.67640*%
%ADD107R,1.69240X1.67640*%
X0Y0D02*
D02*
D19*
X1369240Y6375240D03*
X1623240D03*
X1736070Y6015240D03*
X1877240Y6375240D03*
X1990070Y6015240D03*
X2131240Y6375240D03*
X2244070Y6015240D03*
X2385240Y6375240D03*
X2945240Y6243240D03*
Y6497240D03*
Y6751240D03*
Y7005240D03*
Y7259240D03*
Y7513240D03*
Y7767240D03*
Y8021240D03*
Y8275240D03*
X4316070Y4225240D03*
X4570070D03*
X4824070D03*
X5745240Y6245240D03*
Y6499240D03*
Y6753240D03*
Y7007240D03*
Y7261240D03*
Y7515240D03*
X6096410Y8115240D03*
X6350410D03*
X6604410D03*
D02*
D90*
X7265240Y4465240D03*
Y4825240D03*
D02*
D92*
X4337240Y6865540D03*
D02*
D93*
X3575240Y6243240D03*
Y6497240D03*
Y6751240D03*
Y7005240D03*
Y7259240D03*
Y7513240D03*
Y7767240D03*
Y8021240D03*
Y8275240D03*
X5099240Y6243240D03*
Y6497240D03*
Y6751240D03*
Y7005240D03*
Y7259240D03*
Y7513240D03*
D02*
D94*
X3956240Y6243240D03*
X4210240D03*
X4464240D03*
X4718240D03*
D02*
D100*
X7555240Y2655240D03*
Y2905240D03*
Y3155240D03*
D02*
D101*
X1345240Y1115240D03*
Y8115240D03*
X7545240Y1115240D03*
Y8115240D03*
D02*
D106*
X2055240Y1715240D03*
Y3385240D03*
Y5065240D03*
X2815240Y1715240D03*
Y3385240D03*
Y5065240D03*
X6065240Y1715240D03*
Y3385240D03*
Y5065240D03*
X6825240Y1715240D03*
Y3385240D03*
Y5065240D03*
D02*
D107*
X1482070Y6015240D03*
D02*
D108*
X7135240Y6995240D03*
D02*
D109*
Y6395240D03*
Y6595240D03*
Y6795240D03*
D02*
D110*
X4062070Y4225240D03*
X6858410Y8115240D03*
D02*
D121*
X7645240Y4213240D03*
Y5077240D03*
D02*
D122*
X1115240Y6375240D03*
X0Y0D02*
M02*
