G04 DesignSpark PCB Gerber Version 10.0 Build 5299*
%FSLAX35Y35*%
%MOMM*%
%ADD10C,0.12700*%
%ADD25C,2.54000*%
X0Y0D02*
D02*
D10*
X1369240Y6541930D02*
X1377180Y6533990D01*
X1393050Y6526050D01*
X1408930Y6533990D01*
X1416870Y6541930D01*
Y6621300D01*
X1432740D01*
X1416870D02*
X1385120D01*
X1654800Y1313680D02*
X1670680Y1305740D01*
X1678620Y1289870D01*
X1670680Y1273990D01*
X1654800Y1266050D01*
X1599240D01*
Y1361300D01*
X1654800D01*
X1670680Y1353370D01*
X1678620Y1337490D01*
X1670680Y1321620D01*
X1654800Y1313680D01*
X1599240D01*
X1654800Y8313680D02*
X1670680Y8305740D01*
X1678620Y8289870D01*
X1670680Y8273990D01*
X1654800Y8266050D01*
X1599240D01*
Y8361300D01*
X1654800D01*
X1670680Y8353370D01*
X1678620Y8337490D01*
X1670680Y8321620D01*
X1654800Y8313680D01*
X1599240D01*
X1623240Y6541930D02*
X1631180Y6533990D01*
X1647050Y6526050D01*
X1662930Y6533990D01*
X1670870Y6541930D01*
Y6621300D01*
X1686740D01*
X1670870D02*
X1639120D01*
X1736070Y6181930D02*
X1744010Y6173990D01*
X1759880Y6166050D01*
X1775760Y6173990D01*
X1783700Y6181930D01*
Y6261300D01*
X1799570D01*
X1783700D02*
X1751950D01*
X1799240Y2607800D02*
Y2639550D01*
X1807180Y2655430D01*
X1815120Y2663370D01*
X1830990Y2671300D01*
X1846870D01*
X1862740Y2663370D01*
X1870680Y2655430D01*
X1878620Y2639550D01*
Y2607800D01*
X1870680Y2591930D01*
X1862740Y2583990D01*
X1846870Y2576050D01*
X1830990D01*
X1815120Y2583990D01*
X1807180Y2591930D01*
X1799240Y2607800D01*
X1877240Y6541930D02*
X1885180Y6533990D01*
X1901050Y6526050D01*
X1916930Y6533990D01*
X1924870Y6541930D01*
Y6621300D01*
X1940740D01*
X1924870D02*
X1893120D01*
X1889240Y5277800D02*
Y5309550D01*
X1897180Y5325430D01*
X1905120Y5333370D01*
X1920990Y5341300D01*
X1936870D01*
X1952740Y5333370D01*
X1960680Y5325430D01*
X1968620Y5309550D01*
Y5277800D01*
X1960680Y5261930D01*
X1952740Y5253990D01*
X1936870Y5246050D01*
X1920990D01*
X1905120Y5253990D01*
X1897180Y5261930D01*
X1889240Y5277800D01*
X1899240Y5676050D02*
Y5771300D01*
X1938930Y5723680D01*
X1978620Y5771300D01*
Y5676050D01*
X1990070Y6181930D02*
X1998010Y6173990D01*
X2013880Y6166050D01*
X2029760Y6173990D01*
X2037700Y6181930D01*
Y6261300D01*
X2053570D01*
X2037700D02*
X2005950D01*
X2039240Y7647800D02*
Y7679550D01*
X2047180Y7695430D01*
X2055120Y7703370D01*
X2070990Y7711300D01*
X2086870D01*
X2102740Y7703370D01*
X2110680Y7695430D01*
X2118620Y7679550D01*
Y7647800D01*
X2110680Y7631930D01*
X2102740Y7623990D01*
X2086870Y7616050D01*
X2070990D01*
X2055120Y7623990D01*
X2047180Y7631930D01*
X2039240Y7647800D01*
X2131240Y6541930D02*
X2139180Y6533990D01*
X2155050Y6526050D01*
X2170930Y6533990D01*
X2178870Y6541930D01*
Y6621300D01*
X2194740D01*
X2178870D02*
X2147120D01*
X2244070Y6181930D02*
X2252010Y6173990D01*
X2267880Y6166050D01*
X2283760Y6173990D01*
X2291700Y6181930D01*
Y6261300D01*
X2307570D01*
X2291700D02*
X2259950D01*
X2309240Y1866050D02*
Y1961300D01*
X2364800D01*
X2380680Y1953370D01*
X2388620Y1937490D01*
X2380680Y1921620D01*
X2364800Y1913680D01*
X2309240D01*
X2364800D02*
X2388620Y1866050D01*
X2309240Y3536050D02*
Y3631300D01*
X2364800D01*
X2380680Y3623370D01*
X2388620Y3607490D01*
X2380680Y3591620D01*
X2364800Y3583680D01*
X2309240D01*
X2364800D02*
X2388620Y3536050D01*
X2309240Y5216050D02*
Y5311300D01*
X2364800D01*
X2380680Y5303370D01*
X2388620Y5287490D01*
X2380680Y5271620D01*
X2364800Y5263680D01*
X2309240D01*
X2364800D02*
X2388620Y5216050D01*
X2385240Y6541930D02*
X2393180Y6533990D01*
X2409050Y6526050D01*
X2424930Y6533990D01*
X2432870Y6541930D01*
Y6621300D01*
X2448740D01*
X2432870D02*
X2401120D01*
X2498070Y6181930D02*
X2506010Y6173990D01*
X2521880Y6166050D01*
X2537760Y6173990D01*
X2545700Y6181930D01*
Y6261300D01*
X2561570D01*
X2545700D02*
X2513950D01*
X2639240Y6541930D02*
X2647180Y6533990D01*
X2663050Y6526050D01*
X2678930Y6533990D01*
X2686870Y6541930D01*
Y6621300D01*
X2702740D01*
X2686870D02*
X2655120D01*
X3069240Y1866050D02*
Y1961300D01*
X3124800D01*
X3140680Y1953370D01*
X3148620Y1937490D01*
X3140680Y1921620D01*
X3124800Y1913680D01*
X3069240D01*
X3124800D02*
X3148620Y1866050D01*
X3069240Y3536050D02*
Y3631300D01*
X3124800D01*
X3140680Y3623370D01*
X3148620Y3607490D01*
X3140680Y3591620D01*
X3124800Y3583680D01*
X3069240D01*
X3124800D02*
X3148620Y3536050D01*
X3069240Y5216050D02*
Y5311300D01*
X3124800D01*
X3140680Y5303370D01*
X3148620Y5287490D01*
X3140680Y5271620D01*
X3124800Y5263680D01*
X3069240D01*
X3124800D02*
X3148620Y5216050D01*
X3199240Y6409930D02*
X3207180Y6401990D01*
X3223050Y6394050D01*
X3238930Y6401990D01*
X3246870Y6409930D01*
Y6489300D01*
X3262740D01*
X3246870D02*
X3215120D01*
X3199240Y6663930D02*
X3207180Y6655990D01*
X3223050Y6648050D01*
X3238930Y6655990D01*
X3246870Y6663930D01*
Y6743300D01*
X3262740D01*
X3246870D02*
X3215120D01*
X3199240Y6917930D02*
X3207180Y6909990D01*
X3223050Y6902050D01*
X3238930Y6909990D01*
X3246870Y6917930D01*
Y6997300D01*
X3262740D01*
X3246870D02*
X3215120D01*
X3199240Y7171930D02*
X3207180Y7163990D01*
X3223050Y7156050D01*
X3238930Y7163990D01*
X3246870Y7171930D01*
Y7251300D01*
X3262740D01*
X3246870D02*
X3215120D01*
X3199240Y7425930D02*
X3207180Y7417990D01*
X3223050Y7410050D01*
X3238930Y7417990D01*
X3246870Y7425930D01*
Y7505300D01*
X3262740D01*
X3246870D02*
X3215120D01*
X3199240Y7679930D02*
X3207180Y7671990D01*
X3223050Y7664050D01*
X3238930Y7671990D01*
X3246870Y7679930D01*
Y7759300D01*
X3262740D01*
X3246870D02*
X3215120D01*
X3199240Y7933930D02*
X3207180Y7925990D01*
X3223050Y7918050D01*
X3238930Y7925990D01*
X3246870Y7933930D01*
Y8013300D01*
X3262740D01*
X3246870D02*
X3215120D01*
X3199240Y8187930D02*
X3207180Y8179990D01*
X3223050Y8172050D01*
X3238930Y8179990D01*
X3246870Y8187930D01*
Y8267300D01*
X3262740D01*
X3246870D02*
X3215120D01*
X3199240Y8441930D02*
X3207180Y8433990D01*
X3223050Y8426050D01*
X3238930Y8433990D01*
X3246870Y8441930D01*
Y8521300D01*
X3262740D01*
X3246870D02*
X3215120D01*
X3409240Y5437800D02*
Y5469550D01*
X3417180Y5485430D01*
X3425120Y5493370D01*
X3440990Y5501300D01*
X3456870D01*
X3472740Y5493370D01*
X3480680Y5485430D01*
X3488620Y5469550D01*
Y5437800D01*
X3480680Y5421930D01*
X3472740Y5413990D01*
X3456870Y5406050D01*
X3440990D01*
X3425120Y5413990D01*
X3417180Y5421930D01*
X3409240Y5437800D01*
X3629240Y2366050D02*
Y2461300D01*
X3668930Y2413680D01*
X3708620Y2461300D01*
Y2366050D01*
X3829240Y6409930D02*
X3837180Y6401990D01*
X3853050Y6394050D01*
X3868930Y6401990D01*
X3876870Y6409930D01*
Y6489300D01*
X3892740D01*
X3876870D02*
X3845120D01*
X3829240Y6663930D02*
X3837180Y6655990D01*
X3853050Y6648050D01*
X3868930Y6655990D01*
X3876870Y6663930D01*
Y6743300D01*
X3892740D01*
X3876870D02*
X3845120D01*
X3829240Y6917930D02*
X3837180Y6909990D01*
X3853050Y6902050D01*
X3868930Y6909990D01*
X3876870Y6917930D01*
Y6997300D01*
X3892740D01*
X3876870D02*
X3845120D01*
X3829240Y7171930D02*
X3837180Y7163990D01*
X3853050Y7156050D01*
X3868930Y7163990D01*
X3876870Y7171930D01*
Y7251300D01*
X3892740D01*
X3876870D02*
X3845120D01*
X3829240Y7425930D02*
X3837180Y7417990D01*
X3853050Y7410050D01*
X3868930Y7417990D01*
X3876870Y7425930D01*
Y7505300D01*
X3892740D01*
X3876870D02*
X3845120D01*
X3829240Y7679930D02*
X3837180Y7671990D01*
X3853050Y7664050D01*
X3868930Y7671990D01*
X3876870Y7679930D01*
Y7759300D01*
X3892740D01*
X3876870D02*
X3845120D01*
X3829240Y7933930D02*
X3837180Y7925990D01*
X3853050Y7918050D01*
X3868930Y7925990D01*
X3876870Y7933930D01*
Y8013300D01*
X3892740D01*
X3876870D02*
X3845120D01*
X3829240Y8187930D02*
X3837180Y8179990D01*
X3853050Y8172050D01*
X3868930Y8179990D01*
X3876870Y8187930D01*
Y8267300D01*
X3892740D01*
X3876870D02*
X3845120D01*
X3829240Y8441930D02*
X3837180Y8433990D01*
X3853050Y8426050D01*
X3868930Y8433990D01*
X3876870Y8441930D01*
Y8521300D01*
X3892740D01*
X3876870D02*
X3845120D01*
X3889240Y4227800D02*
Y4259550D01*
X3897180Y4275430D01*
X3905120Y4283370D01*
X3920990Y4291300D01*
X3936870D01*
X3952740Y4283370D01*
X3960680Y4275430D01*
X3968620Y4259550D01*
Y4227800D01*
X3960680Y4211930D01*
X3952740Y4203990D01*
X3936870Y4196050D01*
X3920990D01*
X3905120Y4203990D01*
X3897180Y4211930D01*
X3889240Y4227800D01*
X4079240D02*
Y4259550D01*
X4087180Y4275430D01*
X4095120Y4283370D01*
X4110990Y4291300D01*
X4126870D01*
X4142740Y4283370D01*
X4150680Y4275430D01*
X4158620Y4259550D01*
Y4227800D01*
X4150680Y4211930D01*
X4142740Y4203990D01*
X4126870Y4196050D01*
X4110990D01*
X4095120Y4203990D01*
X4087180Y4211930D01*
X4079240Y4227800D01*
X4109240Y7097800D02*
Y7129550D01*
X4117180Y7145430D01*
X4125120Y7153370D01*
X4140990Y7161300D01*
X4156870D01*
X4172740Y7153370D01*
X4180680Y7145430D01*
X4188620Y7129550D01*
Y7097800D01*
X4180680Y7081930D01*
X4172740Y7073990D01*
X4156870Y7066050D01*
X4140990D01*
X4125120Y7073990D01*
X4117180Y7081930D01*
X4109240Y7097800D01*
Y7727800D02*
Y7759550D01*
X4117180Y7775430D01*
X4125120Y7783370D01*
X4140990Y7791300D01*
X4156870D01*
X4172740Y7783370D01*
X4180680Y7775430D01*
X4188620Y7759550D01*
Y7727800D01*
X4180680Y7711930D01*
X4172740Y7703990D01*
X4156870Y7696050D01*
X4140990D01*
X4125120Y7703990D01*
X4117180Y7711930D01*
X4109240Y7727800D01*
X4210240Y6409930D02*
X4218180Y6401990D01*
X4234050Y6394050D01*
X4249930Y6401990D01*
X4257870Y6409930D01*
Y6489300D01*
X4273740D01*
X4257870D02*
X4226120D01*
X4259240Y5537800D02*
Y5569550D01*
X4267180Y5585430D01*
X4275120Y5593370D01*
X4290990Y5601300D01*
X4306870D01*
X4322740Y5593370D01*
X4330680Y5585430D01*
X4338620Y5569550D01*
Y5537800D01*
X4330680Y5521930D01*
X4322740Y5513990D01*
X4306870Y5506050D01*
X4290990D01*
X4275120Y5513990D01*
X4267180Y5521930D01*
X4259240Y5537800D01*
X4316070Y4391930D02*
X4324010Y4383990D01*
X4339880Y4376050D01*
X4355760Y4383990D01*
X4363700Y4391930D01*
Y4471300D01*
X4379570D01*
X4363700D02*
X4331950D01*
X4464240Y6409930D02*
X4472180Y6401990D01*
X4488050Y6394050D01*
X4503930Y6401990D01*
X4511870Y6409930D01*
Y6489300D01*
X4527740D01*
X4511870D02*
X4480120D01*
X4509240Y3786050D02*
Y3881300D01*
X4548930Y3833680D01*
X4588620Y3881300D01*
Y3786050D01*
X4570070Y4391930D02*
X4578010Y4383990D01*
X4593880Y4376050D01*
X4609760Y4383990D01*
X4617700Y4391930D01*
Y4471300D01*
X4633570D01*
X4617700D02*
X4585950D01*
X4591240Y7040170D02*
X4599180Y7024290D01*
X4615050Y7016350D01*
X4646800D01*
X4662680Y7024290D01*
X4670620Y7040170D01*
X4662680Y7056040D01*
X4646800Y7063980D01*
X4615050D01*
X4599180Y7071920D01*
X4591240Y7087790D01*
X4599180Y7103670D01*
X4615050Y7111600D01*
X4646800D01*
X4662680Y7103670D01*
X4670620Y7087790D01*
X4599240Y2386050D02*
Y2481300D01*
X4638930Y2433680D01*
X4678620Y2481300D01*
Y2386050D01*
X4699240Y4187800D02*
Y4219550D01*
X4707180Y4235430D01*
X4715120Y4243370D01*
X4730990Y4251300D01*
X4746870D01*
X4762740Y4243370D01*
X4770680Y4235430D01*
X4778620Y4219550D01*
Y4187800D01*
X4770680Y4171930D01*
X4762740Y4163990D01*
X4746870Y4156050D01*
X4730990D01*
X4715120Y4163990D01*
X4707180Y4171930D01*
X4699240Y4187800D01*
Y4927800D02*
Y4959550D01*
X4707180Y4975430D01*
X4715120Y4983370D01*
X4730990Y4991300D01*
X4746870D01*
X4762740Y4983370D01*
X4770680Y4975430D01*
X4778620Y4959550D01*
Y4927800D01*
X4770680Y4911930D01*
X4762740Y4903990D01*
X4746870Y4896050D01*
X4730990D01*
X4715120Y4903990D01*
X4707180Y4911930D01*
X4699240Y4927800D01*
X4718240Y6409930D02*
X4726180Y6401990D01*
X4742050Y6394050D01*
X4757930Y6401990D01*
X4765870Y6409930D01*
Y6489300D01*
X4781740D01*
X4765870D02*
X4734120D01*
X4824070Y4391930D02*
X4832010Y4383990D01*
X4847880Y4376050D01*
X4863760Y4383990D01*
X4871700Y4391930D01*
Y4471300D01*
X4887570D01*
X4871700D02*
X4839950D01*
X4849240Y5637800D02*
Y5669550D01*
X4857180Y5685430D01*
X4865120Y5693370D01*
X4880990Y5701300D01*
X4896870D01*
X4912740Y5693370D01*
X4920680Y5685430D01*
X4928620Y5669550D01*
Y5637800D01*
X4920680Y5621930D01*
X4912740Y5613990D01*
X4896870Y5606050D01*
X4880990D01*
X4865120Y5613990D01*
X4857180Y5621930D01*
X4849240Y5637800D01*
X4972240Y6409930D02*
X4980180Y6401990D01*
X4996050Y6394050D01*
X5011930Y6401990D01*
X5019870Y6409930D01*
Y6489300D01*
X5035740D01*
X5019870D02*
X4988120D01*
X5078070Y4391930D02*
X5086010Y4383990D01*
X5101880Y4376050D01*
X5117760Y4383990D01*
X5125700Y4391930D01*
Y4471300D01*
X5141570D01*
X5125700D02*
X5093950D01*
X5129240Y5777800D02*
Y5809550D01*
X5137180Y5825430D01*
X5145120Y5833370D01*
X5160990Y5841300D01*
X5176870D01*
X5192740Y5833370D01*
X5200680Y5825430D01*
X5208620Y5809550D01*
Y5777800D01*
X5200680Y5761930D01*
X5192740Y5753990D01*
X5176870Y5746050D01*
X5160990D01*
X5145120Y5753990D01*
X5137180Y5761930D01*
X5129240Y5777800D01*
X5353240Y6409930D02*
X5361180Y6401990D01*
X5377050Y6394050D01*
X5392930Y6401990D01*
X5400870Y6409930D01*
Y6489300D01*
X5416740D01*
X5400870D02*
X5369120D01*
X5353240Y6663930D02*
X5361180Y6655990D01*
X5377050Y6648050D01*
X5392930Y6655990D01*
X5400870Y6663930D01*
Y6743300D01*
X5416740D01*
X5400870D02*
X5369120D01*
X5353240Y6917930D02*
X5361180Y6909990D01*
X5377050Y6902050D01*
X5392930Y6909990D01*
X5400870Y6917930D01*
Y6997300D01*
X5416740D01*
X5400870D02*
X5369120D01*
X5353240Y7171930D02*
X5361180Y7163990D01*
X5377050Y7156050D01*
X5392930Y7163990D01*
X5400870Y7171930D01*
Y7251300D01*
X5416740D01*
X5400870D02*
X5369120D01*
X5353240Y7425930D02*
X5361180Y7417990D01*
X5377050Y7410050D01*
X5392930Y7417990D01*
X5400870Y7425930D01*
Y7505300D01*
X5416740D01*
X5400870D02*
X5369120D01*
X5353240Y7679930D02*
X5361180Y7671990D01*
X5377050Y7664050D01*
X5392930Y7671990D01*
X5400870Y7679930D01*
Y7759300D01*
X5416740D01*
X5400870D02*
X5369120D01*
X5549240Y2727800D02*
Y2759550D01*
X5557180Y2775430D01*
X5565120Y2783370D01*
X5580990Y2791300D01*
X5596870D01*
X5612740Y2783370D01*
X5620680Y2775430D01*
X5628620Y2759550D01*
Y2727800D01*
X5620680Y2711930D01*
X5612740Y2703990D01*
X5596870Y2696050D01*
X5580990D01*
X5565120Y2703990D01*
X5557180Y2711930D01*
X5549240Y2727800D01*
X5789240Y7317800D02*
Y7349550D01*
X5797180Y7365430D01*
X5805120Y7373370D01*
X5820990Y7381300D01*
X5836870D01*
X5852740Y7373370D01*
X5860680Y7365430D01*
X5868620Y7349550D01*
Y7317800D01*
X5860680Y7301930D01*
X5852740Y7293990D01*
X5836870Y7286050D01*
X5820990D01*
X5805120Y7293990D01*
X5797180Y7301930D01*
X5789240Y7317800D01*
Y7567800D02*
Y7599550D01*
X5797180Y7615430D01*
X5805120Y7623370D01*
X5820990Y7631300D01*
X5836870D01*
X5852740Y7623370D01*
X5860680Y7615430D01*
X5868620Y7599550D01*
Y7567800D01*
X5860680Y7551930D01*
X5852740Y7543990D01*
X5836870Y7536050D01*
X5820990D01*
X5805120Y7543990D01*
X5797180Y7551930D01*
X5789240Y7567800D01*
X5879240Y2966050D02*
Y3061300D01*
X5918930Y3013680D01*
X5958620Y3061300D01*
Y2966050D01*
X5999240Y6411930D02*
X6007180Y6403990D01*
X6023050Y6396050D01*
X6038930Y6403990D01*
X6046870Y6411930D01*
Y6491300D01*
X6062740D01*
X6046870D02*
X6015120D01*
X5999240Y6665930D02*
X6007180Y6657990D01*
X6023050Y6650050D01*
X6038930Y6657990D01*
X6046870Y6665930D01*
Y6745300D01*
X6062740D01*
X6046870D02*
X6015120D01*
X5999240Y6919930D02*
X6007180Y6911990D01*
X6023050Y6904050D01*
X6038930Y6911990D01*
X6046870Y6919930D01*
Y6999300D01*
X6062740D01*
X6046870D02*
X6015120D01*
X5999240Y7173930D02*
X6007180Y7165990D01*
X6023050Y7158050D01*
X6038930Y7165990D01*
X6046870Y7173930D01*
Y7253300D01*
X6062740D01*
X6046870D02*
X6015120D01*
X5999240Y7427930D02*
X6007180Y7419990D01*
X6023050Y7412050D01*
X6038930Y7419990D01*
X6046870Y7427930D01*
Y7507300D01*
X6062740D01*
X6046870D02*
X6015120D01*
X5999240Y7681930D02*
X6007180Y7673990D01*
X6023050Y7666050D01*
X6038930Y7673990D01*
X6046870Y7681930D01*
Y7761300D01*
X6062740D01*
X6046870D02*
X6015120D01*
X6319240Y1866050D02*
Y1961300D01*
X6374800D01*
X6390680Y1953370D01*
X6398620Y1937490D01*
X6390680Y1921620D01*
X6374800Y1913680D01*
X6319240D01*
X6374800D02*
X6398620Y1866050D01*
X6319240Y3536050D02*
Y3631300D01*
X6374800D01*
X6390680Y3623370D01*
X6398620Y3607490D01*
X6390680Y3591620D01*
X6374800Y3583680D01*
X6319240D01*
X6374800D02*
X6398620Y3536050D01*
X6319240Y5216050D02*
Y5311300D01*
X6374800D01*
X6390680Y5303370D01*
X6398620Y5287490D01*
X6390680Y5271620D01*
X6374800Y5263680D01*
X6319240D01*
X6374800D02*
X6398620Y5216050D01*
X6329240Y6186050D02*
Y6281300D01*
X6368930Y6233680D01*
X6408620Y6281300D01*
Y6186050D01*
X6350410Y8281930D02*
X6358350Y8273990D01*
X6374220Y8266050D01*
X6390100Y8273990D01*
X6398040Y8281930D01*
Y8361300D01*
X6413910D01*
X6398040D02*
X6366290D01*
X6509240Y1297800D02*
Y1329550D01*
X6517180Y1345430D01*
X6525120Y1353370D01*
X6540990Y1361300D01*
X6556870D01*
X6572740Y1353370D01*
X6580680Y1345430D01*
X6588620Y1329550D01*
Y1297800D01*
X6580680Y1281930D01*
X6572740Y1273990D01*
X6556870Y1266050D01*
X6540990D01*
X6525120Y1273990D01*
X6517180Y1281930D01*
X6509240Y1297800D01*
X6604410Y8281930D02*
X6612350Y8273990D01*
X6628220Y8266050D01*
X6644100Y8273990D01*
X6652040Y8281930D01*
Y8361300D01*
X6667910D01*
X6652040D02*
X6620290D01*
X6709240Y2727800D02*
Y2759550D01*
X6717180Y2775430D01*
X6725120Y2783370D01*
X6740990Y2791300D01*
X6756870D01*
X6772740Y2783370D01*
X6780680Y2775430D01*
X6788620Y2759550D01*
Y2727800D01*
X6780680Y2711930D01*
X6772740Y2703990D01*
X6756870Y2696050D01*
X6740990D01*
X6725120Y2703990D01*
X6717180Y2711930D01*
X6709240Y2727800D01*
X6858410Y8281930D02*
X6866350Y8273990D01*
X6882220Y8266050D01*
X6898100Y8273990D01*
X6906040Y8281930D01*
Y8361300D01*
X6921910D01*
X6906040D02*
X6874290D01*
X6929240Y6126050D02*
Y6221300D01*
X6968930Y6173680D01*
X7008620Y6221300D01*
Y6126050D01*
X7079240Y1866050D02*
Y1961300D01*
X7134800D01*
X7150680Y1953370D01*
X7158620Y1937490D01*
X7150680Y1921620D01*
X7134800Y1913680D01*
X7079240D01*
X7134800D02*
X7158620Y1866050D01*
X7079240Y3536050D02*
Y3631300D01*
X7134800D01*
X7150680Y3623370D01*
X7158620Y3607490D01*
X7150680Y3591620D01*
X7134800Y3583680D01*
X7079240D01*
X7134800D02*
X7158620Y3536050D01*
X7079240Y5216050D02*
Y5311300D01*
X7134800D01*
X7150680Y5303370D01*
X7158620Y5287490D01*
X7150680Y5271620D01*
X7134800Y5263680D01*
X7079240D01*
X7134800D02*
X7158620Y5216050D01*
X7112410Y8281930D02*
X7120350Y8273990D01*
X7136220Y8266050D01*
X7152100Y8273990D01*
X7160040Y8281930D01*
Y8361300D01*
X7175910D01*
X7160040D02*
X7128290D01*
X7389240Y6546050D02*
X7428930Y6641300D01*
X7468620Y6546050D01*
X7405120Y6585740D02*
X7452740D01*
X7389240Y6746050D02*
X7428930Y6841300D01*
X7468620Y6746050D01*
X7405120Y6785740D02*
X7452740D01*
X7389240Y6946050D02*
X7428930Y7041300D01*
X7468620Y6946050D01*
X7405120Y6985740D02*
X7452740D01*
X7389240Y7146050D02*
X7428930Y7241300D01*
X7468620Y7146050D01*
X7405120Y7185740D02*
X7452740D01*
X7519240Y4616050D02*
Y4711300D01*
X7574800D01*
X7590680Y4703370D01*
X7598620Y4687490D01*
X7590680Y4671620D01*
X7574800Y4663680D01*
X7519240D01*
Y4976050D02*
Y5071300D01*
X7574800D01*
X7590680Y5063370D01*
X7598620Y5047490D01*
X7590680Y5031620D01*
X7574800Y5023680D01*
X7519240D01*
X7854800Y1313680D02*
X7870680Y1305740D01*
X7878620Y1289870D01*
X7870680Y1273990D01*
X7854800Y1266050D01*
X7799240D01*
Y1361300D01*
X7854800D01*
X7870680Y1353370D01*
X7878620Y1337490D01*
X7870680Y1321620D01*
X7854800Y1313680D01*
X7799240D01*
X7854800Y8313680D02*
X7870680Y8305740D01*
X7878620Y8289870D01*
X7870680Y8273990D01*
X7854800Y8266050D01*
X7799240D01*
Y8361300D01*
X7854800D01*
X7870680Y8353370D01*
X7878620Y8337490D01*
X7870680Y8321620D01*
X7854800Y8313680D01*
X7799240D01*
X7809240Y2837800D02*
Y2869550D01*
X7817180Y2885430D01*
X7825120Y2893370D01*
X7840990Y2901300D01*
X7856870D01*
X7872740Y2893370D01*
X7880680Y2885430D01*
X7888620Y2869550D01*
Y2837800D01*
X7880680Y2821930D01*
X7872740Y2813990D01*
X7856870Y2806050D01*
X7840990D01*
X7825120Y2813990D01*
X7817180Y2821930D01*
X7809240Y2837800D01*
X7864800Y2829870D02*
X7888620Y2806050D01*
X7809240Y3087800D02*
Y3119550D01*
X7817180Y3135430D01*
X7825120Y3143370D01*
X7840990Y3151300D01*
X7856870D01*
X7872740Y3143370D01*
X7880680Y3135430D01*
X7888620Y3119550D01*
Y3087800D01*
X7880680Y3071930D01*
X7872740Y3063990D01*
X7856870Y3056050D01*
X7840990D01*
X7825120Y3063990D01*
X7817180Y3071930D01*
X7809240Y3087800D01*
X7864800Y3079870D02*
X7888620Y3056050D01*
X7809240Y3337800D02*
Y3369550D01*
X7817180Y3385430D01*
X7825120Y3393370D01*
X7840990Y3401300D01*
X7856870D01*
X7872740Y3393370D01*
X7880680Y3385430D01*
X7888620Y3369550D01*
Y3337800D01*
X7880680Y3321930D01*
X7872740Y3313990D01*
X7856870Y3306050D01*
X7840990D01*
X7825120Y3313990D01*
X7817180Y3321930D01*
X7809240Y3337800D01*
X7864800Y3329870D02*
X7888620Y3306050D01*
X7923050Y4364050D02*
X7954800D01*
X7938930D02*
Y4459300D01*
X7923050D02*
X7954800D01*
X7923050Y5228050D02*
X7954800D01*
X7938930D02*
Y5323300D01*
X7923050D02*
X7954800D01*
D02*
D25*
X1115240Y6375240D03*
X1345240Y1115240D03*
Y8115240D03*
X1369240Y6375240D03*
X1482070Y6015240D03*
X1545240Y2425240D03*
X1623240Y6375240D03*
X1635240Y5095240D03*
X1645240Y5525240D03*
X1736070Y6015240D03*
X1785240Y7465240D03*
X1877240Y6375240D03*
X1990070Y6015240D03*
X2055240Y1715240D03*
Y3385240D03*
Y5065240D03*
X2131240Y6375240D03*
X2244070Y6015240D03*
X2385240Y6375240D03*
X2815240Y1715240D03*
Y3385240D03*
Y5065240D03*
X2945240Y6243240D03*
Y6497240D03*
Y6751240D03*
Y7005240D03*
Y7259240D03*
Y7513240D03*
Y7767240D03*
Y8021240D03*
Y8275240D03*
X3155240Y5255240D03*
X3375240Y2215240D03*
X3575240Y6243240D03*
Y6497240D03*
Y6751240D03*
Y7005240D03*
Y7259240D03*
Y7513240D03*
Y7767240D03*
Y8021240D03*
Y8275240D03*
X3635240Y4045240D03*
X3825240D03*
X3855240Y6915240D03*
Y7545240D03*
X3956240Y6243240D03*
X4005240Y5355240D03*
X4062070Y4225240D03*
X4210240Y6243240D03*
X4255240Y3635240D03*
X4316070Y4225240D03*
X4337240Y6865540D03*
X4345240Y2235240D03*
X4445240Y4005240D03*
Y4745240D03*
X4464240Y6243240D03*
X4570070Y4225240D03*
X4595240Y5455240D03*
X4718240Y6243240D03*
X4824070Y4225240D03*
X4875240Y5595240D03*
X5099240Y6243240D03*
Y6497240D03*
Y6751240D03*
Y7005240D03*
Y7259240D03*
Y7513240D03*
X5295240Y2545240D03*
X5535240Y7135240D03*
Y7385240D03*
X5625240Y2815240D03*
X5745240Y6245240D03*
Y6499240D03*
Y6753240D03*
Y7007240D03*
Y7261240D03*
Y7515240D03*
X6065240Y1715240D03*
Y3385240D03*
Y5065240D03*
X6075240Y6035240D03*
X6096410Y8115240D03*
X6255240Y1115240D03*
X6350410Y8115240D03*
X6455240Y2545240D03*
X6604410Y8115240D03*
X6675240Y5975240D03*
X6825240Y1715240D03*
Y3385240D03*
Y5065240D03*
X6858410Y8115240D03*
X7135240Y6395240D03*
Y6595240D03*
Y6795240D03*
Y6995240D03*
X7265240Y4465240D03*
Y4825240D03*
X7545240Y1115240D03*
Y8115240D03*
X7555240Y2655240D03*
Y2905240D03*
Y3155240D03*
X7645240Y4213240D03*
Y5077240D03*
X0Y0D02*
M02*
