  0
SECTION
  2
HEADER
  9
$EXTMIN
 10
450.548
 20
452.848
  9
$EXTMAX
 10
538.052
 20
545.452
  9
$LIMMIN
 10
450.548
 20
452.848
  9
$LIMMAX
 10
538.052
 20
545.452
  0
ENDSEC
  0
SECTION
  2
TABLES
  0
TABLE
  2
LAYER
 70
    18
  0
LAYER
  2
0
 70
    64
 62
     7
  6
CONTINUOUS
  0
LAYER
  2
_BOARD
 70
    64
 62
    254
  6
CONTINUOUS
  0
LAYER
  2
_DRILL
 70
    64
 62
    251
  6
CONTINUOUS
  0
ENDTAB
  0
ENDSEC
  0
SECTION
  2
BLOCKS
  0
BLOCK
  8
0
  2
_HOLE
 70
    64
 10
0.000
 20
0.000
  0
CIRCLE
  8
0
 10
0.000
 20
0.000
 40
0.500
  0
ENDBLK
  8
0
  0
ENDSEC
  0
SECTION
  2
ENTITIES
  0
POLYLINE
  8
_BOARD
 66
     1
 62
     3
 10
0.000
 20
0.000
 70
     1
 40
0.000
 41
0.000
  0
VERTEX
  8
_BOARD
 10
460.000
 20
460.000
 40
0.000
 41
0.000
  0
VERTEX
  8
_BOARD
 10
530.000
 20
460.000
  0
VERTEX
  8
_BOARD
 10
530.000
 20
460.000
 40
0.000
 41
0.000
  0
VERTEX
  8
_BOARD
 10
530.000
 20
538.000
  0
VERTEX
  8
_BOARD
 10
530.000
 20
538.000
 40
0.000
 41
0.000
  0
VERTEX
  8
_BOARD
 10
460.000
 20
538.000
  0
VERTEX
  8
_BOARD
 10
460.000
 20
538.000
 40
0.000
 41
0.000
  0
VERTEX
  8
_BOARD
 10
460.000
 20
460.000
 40
0.000
 41
0.000
  0
VERTEX
  8
_BOARD
 10
460.000
 20
460.000
  0
SEQEND
  8
_BOARD
  0
INSERT
  8
_DRILL
  2
_HOLE
 10
474.400
 20
516.600
 41
1.000
 42
1.000
  0
INSERT
  8
_DRILL
  2
_HOLE
 10
471.860
 20
516.600
 41
1.000
 42
1.000
  0
INSERT
  8
_DRILL
  2
_HOLE
 10
469.320
 20
516.600
 41
1.000
 42
1.000
  0
INSERT
  8
_DRILL
  2
_HOLE
 10
466.780
 20
516.600
 41
1.000
 42
1.000
  0
INSERT
  8
_DRILL
  2
_HOLE
 10
464.240
 20
516.600
 41
1.000
 42
1.000
  0
INSERT
  8
_DRILL
  2
_HOLE
 10
461.700
 20
516.600
 41
1.000
 42
1.000
  0
INSERT
  8
_DRILL
  2
_HOLE
 10
527.000
 20
503.620
 41
1.300
 42
1.300
  0
INSERT
  8
_DRILL
  2
_HOLE
 10
527.000
 20
494.980
 41
1.300
 42
1.300
  0
INSERT
  8
_DRILL
  2
_HOLE
 10
523.200
 20
501.100
 41
1.120
 42
1.120
  0
INSERT
  8
_DRILL
  2
_HOLE
 10
523.200
 20
497.500
 41
1.120
 42
1.120
  0
INSERT
  8
_DRILL
  2
_HOLE
 10
511.512
 20
534.000
 41
1.000
 42
1.000
  0
INSERT
  8
_DRILL
  2
_HOLE
 10
514.052
 20
534.000
 41
1.000
 42
1.000
  0
INSERT
  8
_DRILL
  2
_HOLE
 10
516.592
 20
534.000
 41
1.000
 42
1.000
  0
INSERT
  8
_DRILL
  2
_HOLE
 10
519.132
 20
534.000
 41
1.000
 42
1.000
  0
INSERT
  8
_DRILL
  2
_HOLE
 10
498.788
 20
495.100
 41
1.000
 42
1.000
  0
INSERT
  8
_DRILL
  2
_HOLE
 10
496.248
 20
495.100
 41
1.000
 42
1.000
  0
INSERT
  8
_DRILL
  2
_HOLE
 10
493.708
 20
495.100
 41
1.000
 42
1.000
  0
INSERT
  8
_DRILL
  2
_HOLE
 10
491.168
 20
495.100
 41
1.000
 42
1.000
  0
INSERT
  8
_DRILL
  2
_HOLE
 10
521.900
 20
516.800
 41
0.900
 42
0.900
  0
INSERT
  8
_DRILL
  2
_HOLE
 10
521.900
 20
518.800
 41
0.900
 42
0.900
  0
INSERT
  8
_DRILL
  2
_HOLE
 10
521.900
 20
520.800
 41
0.900
 42
0.900
  0
INSERT
  8
_DRILL
  2
_HOLE
 10
521.900
 20
522.800
 41
0.900
 42
0.900
  0
INSERT
  8
_DRILL
  2
_HOLE
 10
472.988
 20
513.000
 41
1.000
 42
1.000
  0
INSERT
  8
_DRILL
  2
_HOLE
 10
470.448
 20
513.000
 41
1.000
 42
1.000
  0
INSERT
  8
_DRILL
  2
_HOLE
 10
467.908
 20
513.000
 41
1.000
 42
1.000
  0
INSERT
  8
_DRILL
  2
_HOLE
 10
465.368
 20
513.000
 41
1.000
 42
1.000
  0
INSERT
  8
_DRILL
  2
_HOLE
 10
480.000
 20
515.280
 41
1.000
 42
1.000
  0
INSERT
  8
_DRILL
  2
_HOLE
 10
480.000
 20
517.820
 41
1.000
 42
1.000
  0
INSERT
  8
_DRILL
  2
_HOLE
 10
480.000
 20
520.360
 41
1.000
 42
1.000
  0
INSERT
  8
_DRILL
  2
_HOLE
 10
480.000
 20
522.900
 41
1.000
 42
1.000
  0
INSERT
  8
_DRILL
  2
_HOLE
 10
480.000
 20
525.440
 41
1.000
 42
1.000
  0
INSERT
  8
_DRILL
  2
_HOLE
 10
480.000
 20
527.980
 41
1.000
 42
1.000
  0
INSERT
  8
_DRILL
  2
_HOLE
 10
480.000
 20
530.520
 41
1.000
 42
1.000
  0
INSERT
  8
_DRILL
  2
_HOLE
 10
480.000
 20
533.060
 41
1.000
 42
1.000
  0
INSERT
  8
_DRILL
  2
_HOLE
 10
480.000
 20
535.600
 41
1.000
 42
1.000
  0
INSERT
  8
_DRILL
  2
_HOLE
 10
508.000
 20
515.300
 41
1.000
 42
1.000
  0
INSERT
  8
_DRILL
  2
_HOLE
 10
508.000
 20
517.840
 41
1.000
 42
1.000
  0
INSERT
  8
_DRILL
  2
_HOLE
 10
508.000
 20
520.380
 41
1.000
 42
1.000
  0
INSERT
  8
_DRILL
  2
_HOLE
 10
508.000
 20
522.920
 41
1.000
 42
1.000
  0
INSERT
  8
_DRILL
  2
_HOLE
 10
508.000
 20
525.460
 41
1.000
 42
1.000
  0
INSERT
  8
_DRILL
  2
_HOLE
 10
508.000
 20
528.000
 41
1.000
 42
1.000
  0
INSERT
  8
_DRILL
  2
_HOLE
 10
471.100
 20
503.500
 41
2.000
 42
2.000
  0
INSERT
  8
_DRILL
  2
_HOLE
 10
478.700
 20
503.500
 41
2.000
 42
2.000
  0
INSERT
  8
_DRILL
  2
_HOLE
 10
518.800
 20
503.500
 41
2.000
 42
2.000
  0
INSERT
  8
_DRILL
  2
_HOLE
 10
511.200
 20
503.500
 41
2.000
 42
2.000
  0
INSERT
  8
_DRILL
  2
_HOLE
 10
518.800
 20
486.700
 41
2.000
 42
2.000
  0
INSERT
  8
_DRILL
  2
_HOLE
 10
511.200
 20
486.700
 41
2.000
 42
2.000
  0
INSERT
  8
_DRILL
  2
_HOLE
 10
471.100
 20
486.700
 41
2.000
 42
2.000
  0
INSERT
  8
_DRILL
  2
_HOLE
 10
478.700
 20
486.700
 41
2.000
 42
2.000
  0
INSERT
  8
_DRILL
  2
_HOLE
 10
471.100
 20
470.000
 41
2.000
 42
2.000
  0
INSERT
  8
_DRILL
  2
_HOLE
 10
478.700
 20
470.000
 41
2.000
 42
2.000
  0
INSERT
  8
_DRILL
  2
_HOLE
 10
518.800
 20
470.000
 41
2.000
 42
2.000
  0
INSERT
  8
_DRILL
  2
_HOLE
 10
511.200
 20
470.000
 41
2.000
 42
2.000
  0
INSERT
  8
_DRILL
  2
_HOLE
 10
464.000
 20
464.000
 41
3.150
 42
3.150
  0
INSERT
  8
_DRILL
  2
_HOLE
 10
464.000
 20
534.000
 41
3.150
 42
3.150
  0
INSERT
  8
_DRILL
  2
_HOLE
 10
526.000
 20
534.000
 41
3.150
 42
3.150
  0
INSERT
  8
_DRILL
  2
_HOLE
 10
526.000
 20
464.000
 41
3.150
 42
3.150
  0
INSERT
  8
_DRILL
  2
_HOLE
 10
526.100
 20
484.400
 41
1.200
 42
1.200
  0
INSERT
  8
_DRILL
  2
_HOLE
 10
526.100
 20
481.900
 41
1.200
 42
1.200
  0
INSERT
  8
_DRILL
  2
_HOLE
 10
526.100
 20
479.400
 41
1.200
 42
1.200
  0
INSERT
  8
_DRILL
  2
_HOLE
 10
497.730
 20
515.280
 41
1.000
 42
1.000
  0
INSERT
  8
_DRILL
  2
_HOLE
 10
495.190
 20
515.280
 41
1.000
 42
1.000
  0
INSERT
  8
_DRILL
  2
_HOLE
 10
492.650
 20
515.280
 41
1.000
 42
1.000
  0
INSERT
  8
_DRILL
  2
_HOLE
 10
501.540
 20
527.980
 41
1.000
 42
1.000
  0
INSERT
  8
_DRILL
  2
_HOLE
 10
501.540
 20
525.440
 41
1.000
 42
1.000
  0
INSERT
  8
_DRILL
  2
_HOLE
 10
501.540
 20
522.900
 41
1.000
 42
1.000
  0
INSERT
  8
_DRILL
  2
_HOLE
 10
501.540
 20
520.360
 41
1.000
 42
1.000
  0
INSERT
  8
_DRILL
  2
_HOLE
 10
501.540
 20
517.820
 41
1.000
 42
1.000
  0
INSERT
  8
_DRILL
  2
_HOLE
 10
501.540
 20
515.280
 41
1.000
 42
1.000
  0
INSERT
  8
_DRILL
  2
_HOLE
 10
486.300
 20
535.600
 41
1.000
 42
1.000
  0
INSERT
  8
_DRILL
  2
_HOLE
 10
486.300
 20
533.060
 41
1.000
 42
1.000
  0
INSERT
  8
_DRILL
  2
_HOLE
 10
486.300
 20
530.520
 41
1.000
 42
1.000
  0
INSERT
  8
_DRILL
  2
_HOLE
 10
486.300
 20
527.980
 41
1.000
 42
1.000
  0
INSERT
  8
_DRILL
  2
_HOLE
 10
486.300
 20
525.440
 41
1.000
 42
1.000
  0
INSERT
  8
_DRILL
  2
_HOLE
 10
486.300
 20
522.900
 41
1.000
 42
1.000
  0
INSERT
  8
_DRILL
  2
_HOLE
 10
486.300
 20
520.360
 41
1.000
 42
1.000
  0
INSERT
  8
_DRILL
  2
_HOLE
 10
486.300
 20
517.820
 41
1.000
 42
1.000
  0
INSERT
  8
_DRILL
  2
_HOLE
 10
490.110
 20
515.280
 41
1.000
 42
1.000
  0
INSERT
  8
_DRILL
  2
_HOLE
 10
486.300
 20
515.280
 41
1.000
 42
1.000
  0
INSERT
  8
_DRILL
  2
_HOLE
 10
493.920
 20
521.503
 41
1.700
 42
1.700
  0
ENDSEC
  0
EOF
