G04 DesignSpark PCB Gerber Version 10.0 Build 5299*
%FSLAX35Y35*%
%MOMM*%
%ADD113C,0.60960*%
%ADD21C,0.90000*%
%ADD20C,1.00000*%
%ADD114C,1.12000*%
%ADD116C,1.20000*%
%ADD124C,1.30000*%
%ADD23C,1.50000*%
%ADD123C,1.70000*%
%ADD118C,2.00000*%
%ADD117C,3.15000*%
X0Y0D02*
D02*
D20*
X1115240Y6375240D03*
X1369240D03*
X1482070Y6015240D03*
X1623240Y6375240D03*
X1736070Y6015240D03*
X1877240Y6375240D03*
X1990070Y6015240D03*
X2131240Y6375240D03*
X2244070Y6015240D03*
X2385240Y6375240D03*
X2945240Y6243240D03*
Y6497240D03*
Y6751240D03*
Y7005240D03*
Y7259240D03*
Y7513240D03*
Y7767240D03*
Y8021240D03*
Y8275240D03*
X3575240Y6243240D03*
Y6497240D03*
Y6751240D03*
Y7005240D03*
Y7259240D03*
Y7513240D03*
Y7767240D03*
Y8021240D03*
Y8275240D03*
X3956240Y6243240D03*
X4062070Y4225240D03*
X4210240Y6243240D03*
X4316070Y4225240D03*
X4464240Y6243240D03*
X4570070Y4225240D03*
X4718240Y6243240D03*
X4824070Y4225240D03*
X5099240Y6243240D03*
Y6497240D03*
Y6751240D03*
Y7005240D03*
Y7259240D03*
Y7513240D03*
X5745240Y6245240D03*
Y6499240D03*
Y6753240D03*
Y7007240D03*
Y7261240D03*
Y7515240D03*
X6096410Y8115240D03*
X6350410D03*
X6604410D03*
X6858410D03*
D02*
D21*
X7135240Y6395240D03*
Y6595240D03*
Y6795240D03*
Y6995240D03*
D02*
D23*
X1645240Y5525240D03*
X3375240Y2215240D03*
X4255240Y3635240D03*
X4345240Y2235240D03*
X5625240Y2815240D03*
X6075240Y6035240D03*
X6675240Y5975240D03*
D02*
D113*
X1545240Y2425240D03*
X1635240Y5095240D03*
X1785240Y7465240D03*
X3155240Y5255240D03*
X3635240Y4045240D03*
X3825240D03*
X3855240Y6915240D03*
Y7545240D03*
X4005240Y5355240D03*
X4445240Y4005240D03*
Y4745240D03*
X4595240Y5455240D03*
X4875240Y5595240D03*
X5295240Y2545240D03*
X5535240Y7135240D03*
Y7385240D03*
X6255240Y1115240D03*
X6455240Y2545240D03*
D02*
D114*
X7265240Y4465240D03*
Y4825240D03*
D02*
D116*
X7555240Y2655240D03*
Y2905240D03*
Y3155240D03*
D02*
D117*
X1345240Y1115240D03*
Y8115240D03*
X7545240Y1115240D03*
Y8115240D03*
D02*
D118*
X2055240Y1715240D03*
Y3385240D03*
Y5065240D03*
X2815240Y1715240D03*
Y3385240D03*
Y5065240D03*
X6065240Y1715240D03*
Y3385240D03*
Y5065240D03*
X6825240Y1715240D03*
Y3385240D03*
Y5065240D03*
D02*
D123*
X4337240Y6865540D03*
D02*
D124*
X7645240Y4213240D03*
Y5077240D03*
X0Y0D02*
M02*
