G04 DesignSpark PCB Gerber Version 10.0 Build 5299*
%FSLAX35Y35*%
%MOMM*%
%AMT82*0 Bullet Pad at angle 0*4,1,26,-0.40000,-0.30000,0.40000,-0.30000,0.40000,-0.10000,0.39630,-0.04550,0.38520,0.00800,0.36690,0.05940,0.34180,0.10790,0.31030,0.15250,0.27300,0.19240,0.23060,0.22680,0.18400,0.25520,0.13390,0.27690,0.08130,0.29160,0.02720,0.29900,-0.02740,0.29900,-0.08150,0.29160,-0.13410,0.27690,-0.18420,0.25510,-0.23080,0.22670,-0.27310,0.19220,-0.31030,0.15230,-0.34180,0.10770,-0.36690,0.05920,-0.38520,0.00780,-0.39630,-0.04570,-0.40000,-0.10000,-0.40000,-0.30000,0*%
%ADD82T82*%
%ADD77R,0.70000X1.20000*%
%ADD84R,0.80000X0.80000*%
%ADD76R,1.00000X1.20000*%
%ADD79R,1.00000X2.80000*%
%ADD75R,1.30000X1.90000*%
%ADD74R,1.35000X3.90000*%
%ADD120R,1.52400X1.52400*%
%ADD12C,0.25400*%
%ADD11C,0.30480*%
%ADD26C,0.80000*%
%ADD28C,1.01600*%
%ADD88C,1.40000*%
%ADD15C,1.52400*%
%ADD29C,1.80000*%
%ADD80C,2.00000*%
%ADD27C,2.20000*%
%ADD85C,3.60000*%
%ADD119O,2.00000X1.60000*%
%ADD78R,1.00000X0.80000*%
%ADD73R,3.00000X1.35000*%
%ADD81C,5.25000*%
%AMT83*0 Bullet Pad at angle 180*4,1,26,0.40000,0.30000,-0.40000,0.30000,-0.40000,0.10000,-0.39630,0.04550,-0.38520,-0.00800,-0.36690,-0.05940,-0.34180,-0.10790,-0.31030,-0.15250,-0.27300,-0.19240,-0.23060,-0.22680,-0.18400,-0.25520,-0.13390,-0.27690,-0.08130,-0.29160,-0.02720,-0.29900,0.02740,-0.29900,0.08150,-0.29160,0.13410,-0.27690,0.18420,-0.25510,0.23080,-0.22670,0.27310,-0.19220,0.31030,-0.15230,0.34180,-0.10770,0.36690,-0.05920,0.38520,-0.00780,0.39630,0.04570,0.40000,0.10000,0.40000,0.30000,0*%
%ADD83T83*%
%ADD87R,1.42000X1.40000*%
%ADD89R,1.53000X1.52400*%
%ADD86R,1.54000X1.52400*%
X0Y0D02*
D02*
D11*
X1001120Y6258440D02*
Y771120D01*
X3755240D01*
Y899640D01*
X3624640D01*
Y1260840D01*
X3755240D01*
Y1414640D01*
X3624640D01*
Y1575840D01*
X3755240D01*
Y1675240D01*
X3575240D01*
Y2505240D01*
X3734640D01*
Y2645840D01*
X3961900D01*
Y2745240D01*
G75*
G02*
X3977600Y2783030I53340J0D01*
G01*
X3997450Y2802880D01*
G75*
G02*
X4035240Y2818580I37790J-37640D01*
G01*
X4113150D01*
X4139210Y2844640D01*
X4114640D01*
Y2991900D01*
X4075300D01*
G75*
G02*
X4037520Y3007520I-70J53340D01*
G01*
X3967520Y3077520D01*
G75*
G02*
X3951900Y3115240I37720J37720D01*
G01*
Y3144810D01*
G75*
G02*
X3924830Y3199640I53340J60430D01*
G01*
X3924640D01*
Y3265840D01*
X3924830D01*
G75*
G02*
X3951900Y3320670I80410J-5600D01*
G01*
Y3328150D01*
X3597520Y3682520D01*
G75*
G02*
X3581900Y3720240I37720J37720D01*
G01*
Y3970970D01*
G75*
G02*
X3543800Y4045240I53340J74270D01*
G01*
G75*
G02*
X3726680I91440J0D01*
G01*
G75*
G02*
X3688580Y3970970I-91440J0D01*
G01*
Y3742330D01*
X4012880Y3418030D01*
G75*
G02*
X4058580Y3365240I-7640J-52790D01*
G01*
Y3320670D01*
G75*
G02*
X4085650Y3265840I-53340J-60430D01*
G01*
X4085840D01*
Y3199640D01*
X4085650D01*
G75*
G02*
X4058580Y3144810I-80410J5600D01*
G01*
Y3137330D01*
X4097330Y3098580D01*
X4175240D01*
G75*
G02*
X4213030Y3082880I0J-53340D01*
G01*
X4230950Y3064960D01*
G75*
G02*
X4237520Y3072960I44330J-29710D01*
G01*
X4251900Y3087330D01*
Y3144810D01*
G75*
G02*
X4224830Y3199640I53340J60430D01*
G01*
X4224640D01*
Y3265840D01*
X4224830D01*
G75*
G02*
X4243270Y3311780I80420J-5610D01*
G01*
X4153150Y3401900D01*
X4125300D01*
G75*
G02*
X4087520Y3417520I-70J53340D01*
G01*
X4057700Y3447350D01*
X3787880Y3712170D01*
G75*
G02*
X3771900Y3750240I37360J38070D01*
G01*
Y3970970D01*
G75*
G02*
X3733800Y4045240I53340J74270D01*
G01*
G75*
G02*
X3916680I91440J0D01*
G01*
G75*
G02*
X3878580Y3970970I-91440J0D01*
G01*
Y3772630D01*
X4132590Y3523320D01*
G75*
G02*
X4132960Y3522960I-36780J-38170D01*
G01*
X4147330Y3508580D01*
X4173690D01*
G75*
G02*
X4108250Y3668190I81550J126660D01*
G01*
X4005050Y3771390D01*
G75*
G02*
X3981430Y3828410I57020J57020D01*
G01*
Y4108440D01*
X3944940D01*
Y4144600D01*
X1775290D01*
G75*
G02*
X1718220Y4168220I-40J80650D01*
G01*
X1178220Y4708220D01*
G75*
G02*
X1154600Y4765240I57020J57020D01*
G01*
Y5655240D01*
G75*
G02*
X1178220Y5712260I80640J0D01*
G01*
X1364440Y5898480D01*
Y5934600D01*
X1205290D01*
G75*
G02*
X1148220Y5958220I-40J80650D01*
G01*
X1058220Y6048220D01*
G75*
G02*
X1034600Y6105240I57020J57020D01*
G01*
Y6258440D01*
X1001120D01*
X1834600Y1715240D02*
G75*
G02*
X2275880I220640J0D01*
G01*
G75*
G02*
X1834600I-220640J0D01*
G01*
Y3385240D02*
G75*
G02*
X2275880I220640J0D01*
G01*
G75*
G02*
X1834600I-220640J0D01*
G01*
X2594600Y1715240D02*
G75*
G02*
X3035880I220640J0D01*
G01*
G75*
G02*
X2594600I-220640J0D01*
G01*
Y3385240D02*
G75*
G02*
X3035880I220640J0D01*
G01*
G75*
G02*
X2594600I-220640J0D01*
G01*
X3224600Y2215240D02*
G75*
G02*
X3525880I150640J0D01*
G01*
G75*
G02*
X3224600I-150640J0D01*
G01*
X1453800Y2425240D02*
G75*
G02*
X1636680I91440J0D01*
G01*
G75*
G02*
X1453800I-91440J0D01*
G01*
X1042100Y1115240D02*
G75*
G02*
X1648380I303140J0D01*
G01*
G75*
G02*
X1042100I-303140J0D01*
G01*
X1016360D02*
G36*
X1016360Y1115240D02*
Y786360D01*
X3755240D01*
Y899640D01*
X3624640D01*
Y1115240D01*
X1648380D01*
G75*
G02*
X1042100I-303140J0D01*
G01*
X1016360D01*
G37*
Y1715240D02*
G36*
X1016360Y1715240D02*
Y1115240D01*
X1042100D01*
G75*
G02*
X1648380I303140J0D01*
G01*
X3624640D01*
Y1260840D01*
X3755240D01*
Y1414640D01*
X3624640D01*
Y1575840D01*
X3755240D01*
Y1675240D01*
X3575240D01*
Y1715240D01*
X3035880D01*
G75*
G02*
X2594600I-220640J0D01*
G01*
X2275880D01*
G75*
G02*
X1834600I-220640J0D01*
G01*
X1016360D01*
G37*
Y2215240D02*
G36*
X1016360Y2215240D02*
Y1715240D01*
X1834600D01*
G75*
G02*
X2275880I220640J0D01*
G01*
X2594600D01*
G75*
G02*
X3035880I220640J0D01*
G01*
X3575240D01*
Y2215240D01*
X3525880D01*
G75*
G02*
X3224600I-150640J0D01*
G01*
X1016360D01*
G37*
Y2425240D02*
G36*
X1016360Y2425240D02*
Y2215240D01*
X3224600D01*
G75*
G02*
X3525880I150640J0D01*
G01*
X3575240D01*
Y2425240D01*
X1636680D01*
G75*
G02*
X1453800I-91440J0D01*
G01*
X1016360D01*
G37*
Y3385240D02*
G36*
X1016360Y3385240D02*
Y2425240D01*
X1453800D01*
G75*
G02*
X1636680I91440J0D01*
G01*
X3575240D01*
Y2505240D01*
X3734640D01*
Y2645840D01*
X3961900D01*
Y2745240D01*
G75*
G02*
X3977600Y2783030I53330J0D01*
G01*
X3997450Y2802880D01*
G75*
G02*
X4035240Y2818580I37790J-37620D01*
G01*
X4113150D01*
X4139210Y2844640D01*
X4114640D01*
Y2991900D01*
X4075300D01*
G75*
G02*
X4037520Y3007520I-60J53360D01*
G01*
X3967520Y3077520D01*
G75*
G02*
X3951900Y3115240I37760J37730D01*
G01*
Y3144810D01*
G75*
G02*
X3924830Y3199640I53310J60420D01*
G01*
X3924640D01*
Y3265840D01*
X3924830D01*
G75*
G02*
X3951900Y3320670I80380J-5590D01*
G01*
Y3328150D01*
X3894810Y3385240D01*
X3035880D01*
G75*
G02*
X2594600I-220640J0D01*
G01*
X2275880D01*
G75*
G02*
X1834600I-220640J0D01*
G01*
X1016360D01*
G37*
X4058580Y3144810D02*
G36*
X4058580Y3144810D02*
Y3137330D01*
X4097330Y3098580D01*
X4175240D01*
G75*
G02*
X4213030Y3082880I0J-53320D01*
G01*
X4230950Y3064960D01*
G75*
G02*
X4236660Y3072080I44240J-29630D01*
G01*
Y3162880D01*
G75*
G02*
X4224830Y3199640I68550J42350D01*
G01*
X4224640D01*
Y3265840D01*
X4224830D01*
G75*
G02*
X4236660Y3302580I80480J-5640D01*
G01*
Y3318390D01*
X4169810Y3385240D01*
X4054690D01*
G75*
G02*
X4058580Y3365240I-49450J-20000D01*
G01*
Y3320670D01*
G75*
G02*
X4085650Y3265840I-53310J-60420D01*
G01*
X4085840D01*
Y3199640D01*
X4085650D01*
G75*
G02*
X4058580Y3144810I-80380J5590D01*
G01*
G37*
X1016360Y6243200D02*
G36*
X1016360Y6243200D02*
Y3385240D01*
X1834600D01*
G75*
G02*
X2275880I220640J0D01*
G01*
X2594600D01*
G75*
G02*
X3035880I220640J0D01*
G01*
X3894810D01*
X3597520Y3682520D01*
G75*
G02*
X3581900Y3720240I37760J37730D01*
G01*
Y3970970D01*
G75*
G02*
X3543800Y4045230I53320J74260D01*
G01*
G75*
G02*
Y4045240I95490J10D01*
G01*
G75*
G02*
X3726680I91440J0D01*
G01*
G75*
G02*
Y4045230I-95490J0D01*
G01*
G75*
G02*
X3688580Y3970970I-91420J0D01*
G01*
Y3742330D01*
X4012880Y3418030D01*
G75*
G02*
X4054690Y3385240I-7640J-52790D01*
G01*
X4169810D01*
X4153150Y3401900D01*
X4125300D01*
G75*
G02*
X4087520Y3417520I-60J53360D01*
G01*
X4057700Y3447350D01*
X3787880Y3712170D01*
G75*
G02*
X3771900Y3750240I37410J38090D01*
G01*
Y3970970D01*
G75*
G02*
X3733800Y4045230I53320J74260D01*
G01*
G75*
G02*
Y4045240I95490J10D01*
G01*
G75*
G02*
X3916680I91440J0D01*
G01*
G75*
G02*
Y4045230I-95490J0D01*
G01*
G75*
G02*
X3878580Y3970970I-91420J0D01*
G01*
Y3772630D01*
X4132590Y3523320D01*
G75*
G02*
X4132960Y3522960I-6480J-7030D01*
G01*
X4147330Y3508580D01*
X4173690D01*
G75*
G02*
X4104600Y3635230I81540J126650D01*
G01*
G75*
G02*
X4108250Y3668190I150660J0D01*
G01*
X4005050Y3771390D01*
G75*
G02*
X3981430Y3828410I57030J57030D01*
G01*
Y4108440D01*
X3944940D01*
Y4144600D01*
X1775290D01*
G75*
G02*
X1718220Y4168220I-50J80630D01*
G01*
X1178220Y4708220D01*
G75*
G02*
X1154600Y4765240I57030J57030D01*
G01*
Y5655240D01*
G75*
G02*
X1178220Y5712260I80650J-10D01*
G01*
X1364440Y5898480D01*
Y5934600D01*
X1205290D01*
G75*
G02*
X1148220Y5958220I-50J80630D01*
G01*
X1058220Y6048220D01*
G75*
G02*
X1034600Y6105240I57030J57030D01*
G01*
Y6243200D01*
X1016360D01*
G37*
X1001120Y8459360D02*
Y6492040D01*
X1232040D01*
Y6258440D01*
X1195880D01*
Y6138640D01*
X1238640Y6095880D01*
X1364440D01*
Y6132040D01*
X1599740D01*
Y5898440D01*
X1562630D01*
G75*
G02*
X1539090Y5845050I-80560J3630D01*
G01*
X1315880Y5621840D01*
Y4798640D01*
X1808640Y4305880D01*
X3944940D01*
Y4342040D01*
X4179240D01*
Y4108440D01*
X4142710D01*
Y3861810D01*
X4222290Y3782230D01*
G75*
G02*
X4405880Y3635240I32950J-146990D01*
G01*
G75*
G02*
X4216160Y3489760I-150640J0D01*
G01*
X4342960Y3362960D01*
G75*
G02*
X4358580Y3325240I-37720J-37720D01*
G01*
Y3320670D01*
G75*
G02*
X4385650Y3265840I-53340J-60430D01*
G01*
X4385840D01*
Y3199640D01*
X4385650D01*
G75*
G02*
X4358580Y3144810I-80410J5600D01*
G01*
Y3065240D01*
G75*
G02*
X4342960Y3027520I-53340J0D01*
G01*
X4328580Y3013150D01*
Y3005840D01*
X4357800D01*
G75*
G02*
X4360340Y3005880I2540J-80640D01*
G01*
X4385190D01*
G75*
G02*
X4387780Y3005840I50J-80790D01*
G01*
X4440940D01*
Y2983550D01*
G75*
G02*
X4442260Y2982260I-55670J-58290D01*
G01*
X4472260Y2952260D01*
G75*
G02*
X4495880Y2895240I-57020J-57020D01*
G01*
Y2771310D01*
X4641900Y2917330D01*
Y3033150D01*
X4557520Y3117520D01*
G75*
G02*
X4543160Y3143730I37730J37710D01*
G01*
G75*
G02*
X4514830Y3199640I52080J61520D01*
G01*
X4514640D01*
Y3265840D01*
X4514830D01*
G75*
G02*
X4541900Y3320670I80410J-5600D01*
G01*
Y3833150D01*
X4460040Y3915010D01*
G75*
G02*
X4353800Y4005240I-14800J90230D01*
G01*
G75*
G02*
X4536680I91440J0D01*
G01*
G75*
G02*
X4535470Y3990440I-91450J30D01*
G01*
X4632960Y3892960D01*
G75*
G02*
X4648580Y3855240I-37720J-37720D01*
G01*
Y3320670D01*
G75*
G02*
X4675650Y3265840I-53340J-60430D01*
G01*
X4675840D01*
Y3199640D01*
X4675650D01*
G75*
G02*
X4663510Y3162400I-80410J5620D01*
G01*
X4732960Y3092960D01*
G75*
G02*
X4748580Y3055240I-37720J-37720D01*
G01*
Y2914010D01*
X4821900Y2987330D01*
Y3144810D01*
G75*
G02*
X4794830Y3199640I53340J60430D01*
G01*
X4794640D01*
Y3265840D01*
X4794830D01*
G75*
G02*
X4821900Y3320670I80410J-5600D01*
G01*
Y3583150D01*
X4667520Y3737520D01*
G75*
G02*
X4651900Y3775240I37720J37720D01*
G01*
Y4141840D01*
G75*
G02*
X4453230Y4225240I-81830J83400D01*
G01*
G75*
G02*
X4516730Y4329190I116840J0D01*
G01*
Y4463150D01*
X4437980Y4541900D01*
X3595300D01*
G75*
G02*
X3557520Y4557520I-70J53340D01*
G01*
X3377520Y4737520D01*
G75*
G02*
X3361900Y4775240I37720J37720D01*
G01*
Y5646470D01*
X3162960Y5447520D01*
G75*
G02*
X3125180Y5431900I-37710J37720D01*
G01*
X2907330D01*
X2892960Y5417520D01*
G75*
G02*
X2855180Y5401900I-37710J37720D01*
G01*
X2545840D01*
Y5374640D01*
X2384640D01*
Y5680410D01*
X2383150Y5681900D01*
X2380740D01*
Y5607780D01*
G75*
G02*
X2380780Y5605240I-80640J-2540D01*
G01*
Y5455240D01*
G75*
G02*
X2380740Y5452700I-80680J0D01*
G01*
Y5374640D01*
X2302680D01*
G75*
G02*
X2297600I-2540J80620D01*
G01*
X2219540D01*
Y5452700D01*
G75*
G02*
X2219500Y5455240I80640J2540D01*
G01*
Y5524600D01*
X2098640D01*
X2042260Y5468220D01*
G75*
G02*
X1985190Y5444600I-57030J57030D01*
G01*
X1772480D01*
G75*
G02*
X1508580Y5461860I-127240J80640D01*
G01*
Y4807330D01*
X1777330Y4538580D01*
X4245180D01*
G75*
G02*
X4282960Y4522960I70J-53340D01*
G01*
X4353790Y4452130D01*
G75*
G02*
X4369410Y4414410I-37720J-37720D01*
G01*
Y4329190D01*
G75*
G02*
X4316070Y4108400I-53340J-103950D01*
G01*
G75*
G02*
X4262730Y4329190I0J116840D01*
G01*
Y4392320D01*
X4223150Y4431900D01*
X1755300D01*
G75*
G02*
X1717520Y4447520I-70J53340D01*
G01*
X1417520Y4747520D01*
G75*
G02*
X1401900Y4785240I37720J37720D01*
G01*
Y5615240D01*
G75*
G02*
X1417520Y5652960I53340J0D01*
G01*
X1678270Y5913700D01*
G75*
G02*
X1736070Y6132080I57800J101540D01*
G01*
G75*
G02*
X1788580Y5910860I0J-116840D01*
G01*
Y5857330D01*
X1857330Y5788580D01*
X2405180D01*
G75*
G02*
X2442960Y5772960I70J-53340D01*
G01*
X2502960Y5712960D01*
G75*
G02*
X2517520Y5685840I-37720J-37720D01*
G01*
X2545840D01*
Y5508580D01*
X2833150D01*
X2847520Y5522960D01*
G75*
G02*
X2885300Y5538580I37710J-37720D01*
G01*
X3103150D01*
X3339810Y5775240D01*
X3283150Y5831900D01*
X2045240D01*
G75*
G02*
X2007490Y5847560I10J53340D01*
G01*
X1952380Y5902640D01*
G75*
G02*
X1949590Y5905630I37600J37880D01*
G01*
G75*
G02*
X1878850Y6051030I40480J109600D01*
G01*
X1839520Y6090350D01*
G75*
G02*
X1823900Y6128070I37720J37720D01*
G01*
Y6271290D01*
G75*
G02*
X1877240Y6492080I53340J103950D01*
G01*
G75*
G02*
X1930580Y6271290I0J-116840D01*
G01*
Y6150160D01*
X1954280Y6126460D01*
G75*
G02*
X2078250Y5938580I35790J-111230D01*
G01*
X2155890D01*
G75*
G02*
X2244070Y6132080I88180J76660D01*
G01*
G75*
G02*
X2332250Y5938580I0J-116840D01*
G01*
X3305180D01*
G75*
G02*
X3342960Y5922960I70J-53340D01*
G01*
X3452960Y5812960D01*
G75*
G02*
X3455000Y5810800I-37750J-37700D01*
G01*
G75*
G02*
X3468580Y5775240I-39760J-35560D01*
G01*
Y4797330D01*
X3617330Y4648580D01*
X4460010D01*
G75*
G02*
X4497790Y4632960I70J-53340D01*
G01*
X4607790Y4522960D01*
G75*
G02*
X4623410Y4485240I-37720J-37720D01*
G01*
Y4329190D01*
G75*
G02*
X4651900Y4308640I-53330J-103960D01*
G01*
Y5255240D01*
G75*
G02*
X4667520Y5292960I53340J0D01*
G01*
X4821900Y5447330D01*
Y5520970D01*
G75*
G02*
X4783800Y5595240I53340J74270D01*
G01*
G75*
G02*
X4966680I91440J0D01*
G01*
G75*
G02*
X4928580Y5520970I-91440J0D01*
G01*
Y5425240D01*
G75*
G02*
X4912960Y5387520I-53340J0D01*
G01*
X4758580Y5233150D01*
Y4322000D01*
G75*
G02*
X4940910Y4225240I65490J-96760D01*
G01*
G75*
G02*
X4758580Y4128480I-116840J0D01*
G01*
Y3797330D01*
X4912960Y3642960D01*
G75*
G02*
X4928580Y3605240I-37720J-37720D01*
G01*
Y3320670D01*
G75*
G02*
X4955650Y3265840I-53340J-60430D01*
G01*
X4955840D01*
Y3199640D01*
X4955650D01*
G75*
G02*
X4928580Y3144810I-80410J5600D01*
G01*
Y2965240D01*
G75*
G02*
X4912960Y2927520I-53340J0D01*
G01*
X4631270Y2645840D01*
X4920840D01*
Y2444640D01*
X4425880D01*
Y2362480D01*
G75*
G02*
X4495880Y2235240I-80640J-127240D01*
G01*
G75*
G02*
X4194600I-150640J0D01*
G01*
G75*
G02*
X4264600Y2362480I150640J0D01*
G01*
Y2444640D01*
X3765240D01*
Y2215840D01*
X3805840D01*
Y2065240D01*
X4755240D01*
Y1835240D01*
X3875240D01*
Y771120D01*
X7889360D01*
Y8459360D01*
X5075240D01*
Y7755880D01*
X5181840D01*
X5808220Y8382260D01*
G75*
G02*
X5865290Y8405880I57030J-57030D01*
G01*
X6140360D01*
G75*
G02*
X6197430Y8382260I40J-80650D01*
G01*
X6347640Y8232050D01*
G75*
G02*
X6350410Y8232080I2650J-117020D01*
G01*
G75*
G02*
X6431050Y8030690I0J-116840D01*
G01*
Y7883470D01*
X6572260Y7742260D01*
G75*
G02*
X6595880Y7685240I-57020J-57020D01*
G01*
Y6569920D01*
X6678220Y6652260D01*
G75*
G02*
X6735290Y6675880I57030J-57030D01*
G01*
X7059490D01*
G75*
G02*
X7087900Y6695240I75750J-80640D01*
G01*
G75*
G02*
X7038310Y6741900I47340J100000D01*
G01*
X7005240D01*
G75*
G02*
X6967450Y6757600I0J53340D01*
G01*
X6948430Y6776620D01*
G75*
G02*
X6932730Y6814410I37640J37790D01*
G01*
Y7712320D01*
X6640830Y8004220D01*
G75*
G02*
X6487570Y8115240I-36420J111020D01*
G01*
G75*
G02*
X6604410Y8232080I116840J0D01*
G01*
G75*
G02*
X6715830Y8080080I0J-116830D01*
G01*
X6741240Y8054670D01*
Y8232040D01*
X6975540D01*
Y8010370D01*
X7172960Y7812960D01*
G75*
G02*
X7188580Y7775240I-37720J-37720D01*
G01*
Y7105840D01*
X7246840D01*
Y6884640D01*
X7200420D01*
G75*
G02*
X7182580Y6695240I-65180J-89400D01*
G01*
G75*
G02*
Y6495240I-47340J-100000D01*
G01*
G75*
G02*
X7135240Y6284600I-47340J-100000D01*
G01*
G75*
G02*
X7087900Y6495240I0J110640D01*
G01*
G75*
G02*
X7059490Y6514600I47340J100000D01*
G01*
X6768640D01*
X6595880Y6341840D01*
Y6288640D01*
X6732260Y6152260D01*
G75*
G02*
X6755530Y6102700I-57020J-57010D01*
G01*
G75*
G02*
X6825880Y5975240I-80300J-127460D01*
G01*
G75*
G02*
X6524600I-150640J0D01*
G01*
G75*
G02*
X6571740Y6084700I150650J0D01*
G01*
X6458220Y6198220D01*
G75*
G02*
X6434600Y6255240I57020J57020D01*
G01*
Y7651840D01*
X6293390Y7793050D01*
G75*
G02*
X6269770Y7850070I57020J57020D01*
G01*
Y8030690D01*
G75*
G02*
X6233570Y8115240I80640J84550D01*
G01*
G75*
G02*
X6233600Y8118010I117140J120D01*
G01*
X6210310Y8141300D01*
G75*
G02*
X6096410Y7998400I-113900J-26060D01*
G01*
G75*
G02*
X5979570Y8115240I0J116840D01*
G01*
G75*
G02*
X6122470Y8229140I116850J0D01*
G01*
X6107010Y8244600D01*
X5898640D01*
X5275380Y7621340D01*
X5289840D01*
Y7593880D01*
X5658830D01*
G75*
G02*
X5829790Y7595880I86410J-78640D01*
G01*
X6005190D01*
G75*
G02*
X6062260Y7572260I40J-80650D01*
G01*
X6132260Y7502260D01*
G75*
G02*
X6155880Y7445240I-57020J-57020D01*
G01*
Y6162480D01*
G75*
G02*
X6225880Y6035240I-80640J-127240D01*
G01*
G75*
G02*
X5924600I-150640J0D01*
G01*
G75*
G02*
X5994600Y6162480I150640J0D01*
G01*
Y7411840D01*
X5971840Y7434600D01*
X5829790D01*
G75*
G02*
X5662640Y7432600I-84550J80640D01*
G01*
X5613460D01*
G75*
G02*
X5593280Y7314580I-78220J-47360D01*
G01*
X5641290D01*
G75*
G02*
X5862080Y7261240I103950J-53340D01*
G01*
G75*
G02*
X5641290Y7207900I-116840J0D01*
G01*
X5590750D01*
G75*
G02*
X5588030Y7060580I-55510J-72660D01*
G01*
X5641290D01*
G75*
G02*
X5862080Y7007240I103950J-53340D01*
G01*
G75*
G02*
X5641290Y6953900I-116840J0D01*
G01*
X5289840D01*
Y6897140D01*
X4908640D01*
Y7043210D01*
X4858580Y6993150D01*
Y6685240D01*
G75*
G02*
X4842960Y6647520I-53340J0D01*
G01*
X4771580Y6576150D01*
Y6478840D01*
X4826340D01*
Y6007640D01*
X4610140D01*
Y6478840D01*
X4664900D01*
Y6598240D01*
G75*
G02*
X4680520Y6635960I53340J0D01*
G01*
X4751900Y6707330D01*
Y6746470D01*
X4517580Y6512150D01*
Y6478840D01*
X4572340D01*
Y6007640D01*
X4356140D01*
Y6478840D01*
X4410900D01*
Y6534240D01*
G75*
G02*
X4426520Y6571960I53340J0D01*
G01*
X4671900Y6817330D01*
Y7225240D01*
G75*
G02*
X4671970Y7227930I53450J-40D01*
G01*
X4542260Y7098220D01*
G75*
G02*
X4485190Y7074600I-57030J57030D01*
G01*
X4288640D01*
X4145880Y6931840D01*
Y6688640D01*
X4220850Y6613680D01*
G75*
G02*
X4233480Y6603310I-45620J-68440D01*
G01*
X4268310Y6568480D01*
G75*
G02*
X4292480Y6510240I-58070J-58240D01*
G01*
Y6478840D01*
X4318340D01*
Y6007640D01*
X4102140D01*
Y6463000D01*
X4064340D01*
Y6007640D01*
X3848140D01*
Y6463000D01*
X3765840D01*
Y6389140D01*
X3384640D01*
Y6416600D01*
X3029790D01*
G75*
G02*
X2828400Y6497240I-84550J80640D01*
G01*
G75*
G02*
X3029790Y6577880I116840J0D01*
G01*
X3384640D01*
Y6605340D01*
X3567100D01*
G75*
G02*
X3623240Y6627480I56140J-60110D01*
G01*
X3989530D01*
G75*
G02*
X3984600Y6655240I75710J27760D01*
G01*
Y6965240D01*
G75*
G02*
X4008220Y7022260I80640J0D01*
G01*
X4198220Y7212260D01*
G75*
G02*
X4255290Y7235880I57030J-57030D01*
G01*
X4451840D01*
X4574600Y7358640D01*
Y7545240D01*
G75*
G02*
X4598220Y7602260I80640J0D01*
G01*
X4728220Y7732260D01*
G75*
G02*
X4775100Y7755240I57020J-57020D01*
G01*
X3765840D01*
Y7659140D01*
X3384640D01*
Y7713900D01*
X3049190D01*
G75*
G02*
X2828400Y7767240I-103950J53340D01*
G01*
G75*
G02*
X3049190Y7820580I116840J0D01*
G01*
X3384640D01*
Y7875340D01*
X3745240D01*
Y7913140D01*
X3384640D01*
Y7967900D01*
X3049190D01*
G75*
G02*
X2828400Y8021240I-103950J53340D01*
G01*
G75*
G02*
X3049190Y8074580I116840J0D01*
G01*
X3384640D01*
Y8129340D01*
X3745240D01*
Y8167140D01*
X3384640D01*
Y8221900D01*
X3049190D01*
G75*
G02*
X2828400Y8275240I-103950J53340D01*
G01*
G75*
G02*
X3049190Y8328580I116840J0D01*
G01*
X3384640D01*
Y8383340D01*
X3745240D01*
Y8459360D01*
X1001120D01*
X7242100Y8115240D02*
G75*
G02*
X7848380I303140J0D01*
G01*
G75*
G02*
X7242100I-303140J0D01*
G01*
X7683680Y5196420D02*
G75*
G02*
X7698580Y4961340I-18440J-119180D01*
G01*
Y4329140D01*
G75*
G02*
X7665240Y4092640I-33340J-115900D01*
G01*
X7625240D01*
G75*
G02*
X7591900Y4329140I0J120600D01*
G01*
Y4961340D01*
G75*
G02*
X7577000Y5187770I33340J115900D01*
G01*
Y5314640D01*
X7549740D01*
Y5475840D01*
X7710940D01*
Y5314640D01*
X7683680D01*
Y5196420D01*
X7384640Y5475840D02*
X7545840D01*
Y5314640D01*
X7384640D01*
Y5475840D01*
X7414600Y3155240D02*
G75*
G02*
X7695880I140640J0D01*
G01*
G75*
G02*
X7619700Y3030240I-140640J0D01*
G01*
G75*
G02*
Y2780240I-64460J-125000D01*
G01*
G75*
G02*
X7695880Y2655240I-64460J-125000D01*
G01*
G75*
G02*
X7414600I-140640J0D01*
G01*
G75*
G02*
X7490780Y2780240I140640J0D01*
G01*
G75*
G02*
X7440020Y2824600I64460J124990D01*
G01*
X7208640D01*
X7142260Y2758220D01*
G75*
G02*
X7085190Y2734600I-57030J57030D01*
G01*
X5752480D01*
G75*
G02*
X5474600Y2815240I-127240J80640D01*
G01*
G75*
G02*
X5752480Y2895880I150640J0D01*
G01*
X7051840D01*
X7118220Y2962260D01*
G75*
G02*
X7175290Y2985880I57030J-57030D01*
G01*
X7440020D01*
G75*
G02*
X7490780Y3030240I115220J-80630D01*
G01*
G75*
G02*
X7414600Y3155240I64460J125000D01*
G01*
X7242100Y1115240D02*
G75*
G02*
X7848380I303140J0D01*
G01*
G75*
G02*
X7242100I-303140J0D01*
G01*
X5844600Y1715240D02*
G75*
G02*
X6285880I220640J0D01*
G01*
G75*
G02*
X5844600I-220640J0D01*
G01*
X6163800Y1115240D02*
G75*
G02*
X6346680I91440J0D01*
G01*
G75*
G02*
X6163800I-91440J0D01*
G01*
X6363800Y2545240D02*
G75*
G02*
X6546680I91440J0D01*
G01*
G75*
G02*
X6363800I-91440J0D01*
G01*
X6604600Y1715240D02*
G75*
G02*
X7045880I220640J0D01*
G01*
G75*
G02*
X6604600I-220640J0D01*
G01*
X7134600Y4465240D02*
G75*
G02*
X7395880I130640J0D01*
G01*
G75*
G02*
X7134600I-130640J0D01*
G01*
Y4825240D02*
G75*
G02*
X7395880I130640J0D01*
G01*
G75*
G02*
X7134600I-130640J0D01*
G01*
X6604600Y3385240D02*
G75*
G02*
X7045880I220640J0D01*
G01*
G75*
G02*
X6604600I-220640J0D01*
G01*
Y5065240D02*
G75*
G02*
X7045880I220640J0D01*
G01*
G75*
G02*
X6604600I-220640J0D01*
G01*
X4908640Y6351340D02*
X5289840D01*
Y6135140D01*
X4908640D01*
Y6351340D01*
X5203800Y2545240D02*
G75*
G02*
X5386680I91440J0D01*
G01*
G75*
G02*
X5203800I-91440J0D01*
G01*
X5640280Y6550580D02*
G75*
G02*
X5862080Y6499240I104960J-51340D01*
G01*
G75*
G02*
X5642340Y6443900I-116840J0D01*
G01*
X5289840D01*
Y6389140D01*
X4908640D01*
Y6605340D01*
X5289840D01*
Y6550580D01*
X5640280D01*
X5628400Y6245240D02*
G75*
G02*
X5862080I116840J0D01*
G01*
G75*
G02*
X5628400I-116840J0D01*
G01*
X5844600Y3385240D02*
G75*
G02*
X6285880I220640J0D01*
G01*
G75*
G02*
X5844600I-220640J0D01*
G01*
Y5065240D02*
G75*
G02*
X6285880I220640J0D01*
G01*
G75*
G02*
X5844600I-220640J0D01*
G01*
X5641290Y6806580D02*
G75*
G02*
X5862080Y6753240I103950J-53340D01*
G01*
G75*
G02*
X5641290Y6699900I-116840J0D01*
G01*
X5289840D01*
Y6643140D01*
X4908640D01*
Y6859340D01*
X5289840D01*
Y6806580D01*
X5641290D01*
X4503800Y5455240D02*
G75*
G02*
X4686680I91440J0D01*
G01*
G75*
G02*
X4580440Y5365010I-91440J0D01*
G01*
X4498580Y5283150D01*
Y4819510D01*
G75*
G02*
X4536680Y4745240I-53340J-74270D01*
G01*
G75*
G02*
X4353800I-91440J0D01*
G01*
G75*
G02*
X4391900Y4819510I91440J0D01*
G01*
Y5305240D01*
G75*
G02*
X4407520Y5342960I53340J0D01*
G01*
X4505010Y5440440D01*
G75*
G02*
X4503800Y5455240I90240J14830D01*
G01*
X4186600Y6865540D02*
G75*
G02*
X4487880I150640J0D01*
G01*
G75*
G02*
X4186600I-150640J0D01*
G01*
X3913800Y5355240D02*
G75*
G02*
X4096680I91440J0D01*
G01*
G75*
G02*
X3913800I-91440J0D01*
G01*
X3384640Y6351340D02*
X3765840D01*
Y6135140D01*
X3384640D01*
Y6351340D01*
X1042100Y8115240D02*
G75*
G02*
X1648380I303140J0D01*
G01*
G75*
G02*
X1042100I-303140J0D01*
G01*
X1623240Y6492080D02*
G75*
G02*
Y6258400I0J-116840D01*
G01*
G75*
G02*
X1506400Y6375240I0J116840D01*
G01*
G75*
G02*
X1623240Y6492080I116840J0D01*
G01*
X1369240D02*
G75*
G02*
X1486080Y6375240I0J-116840D01*
G01*
G75*
G02*
X1369240Y6258400I-116840J0D01*
G01*
G75*
G02*
X1252400Y6375240I0J116840D01*
G01*
G75*
G02*
X1369240Y6492080I116840J0D01*
G01*
X1693800Y7465240D02*
G75*
G02*
X1876680I91440J0D01*
G01*
G75*
G02*
X1693800I-91440J0D01*
G01*
X2131240Y6492080D02*
G75*
G02*
X2248080Y6375240I0J-116840D01*
G01*
G75*
G02*
X2131240Y6258400I-116840J0D01*
G01*
G75*
G02*
X2014400Y6375240I0J116840D01*
G01*
G75*
G02*
X2131240Y6492080I116840J0D01*
G01*
X2385240D02*
G75*
G02*
X2502080Y6375240I0J-116840D01*
G01*
G75*
G02*
X2385240Y6258400I-116840J0D01*
G01*
G75*
G02*
X2268400Y6375240I0J116840D01*
G01*
G75*
G02*
X2385240Y6492080I116840J0D01*
G01*
X2828400Y6243240D02*
G75*
G02*
X3062080I116840J0D01*
G01*
G75*
G02*
X2828400I-116840J0D01*
G01*
X3384640Y6859340D02*
X3765840D01*
Y6643140D01*
X3384640D01*
Y6697900D01*
X3049190D01*
G75*
G02*
X2828400Y6751240I-103950J53340D01*
G01*
G75*
G02*
X3049190Y6804580I116840J0D01*
G01*
X3384640D01*
Y6859340D01*
X3765840Y7564450D02*
G75*
G02*
X3946680Y7545240I89400J-19210D01*
G01*
G75*
G02*
X3908580Y7470970I-91440J0D01*
G01*
Y6989510D01*
G75*
G02*
X3946680Y6915240I-53340J-74270D01*
G01*
G75*
G02*
X3765610Y6897140I-91440J0D01*
G01*
X3384640D01*
Y6951900D01*
X3049190D01*
G75*
G02*
X2828400Y7005240I-103950J53340D01*
G01*
G75*
G02*
X3049190Y7058580I116840J0D01*
G01*
X3384640D01*
Y7113340D01*
X3765840D01*
Y6934450D01*
G75*
G02*
X3801900Y6989510I89400J-19210D01*
G01*
Y7470970D01*
G75*
G02*
X3765840Y7526030I53340J74270D01*
G01*
Y7405140D01*
X3384640D01*
Y7459900D01*
X3049190D01*
G75*
G02*
X2828400Y7513240I-103950J53340D01*
G01*
G75*
G02*
X3049190Y7566580I116840J0D01*
G01*
X3384640D01*
Y7621340D01*
X3765840D01*
Y7564450D01*
X3384640Y7367340D02*
X3765840D01*
Y7151140D01*
X3384640D01*
Y7205900D01*
X3049190D01*
G75*
G02*
X2828400Y7259240I-103950J53340D01*
G01*
G75*
G02*
X3049190Y7312580I116840J0D01*
G01*
X3384640D01*
Y7367340D01*
X3063800Y5255240D02*
G75*
G02*
X3246680I91440J0D01*
G01*
G75*
G02*
X3063800I-91440J0D01*
G01*
X2594600Y5065240D02*
G75*
G02*
X3035880I220640J0D01*
G01*
G75*
G02*
X2594600I-220640J0D01*
G01*
X1834600D02*
G75*
G02*
X2275880I220640J0D01*
G01*
G75*
G02*
X1834600I-220640J0D01*
G01*
X1543800Y5095240D02*
G75*
G02*
X1726680I91440J0D01*
G01*
G75*
G02*
X1543800I-91440J0D01*
G01*
X4959640Y1170840D02*
X5170840D01*
Y899640D01*
X4959640D01*
Y1170840D01*
X3875240Y1115240D02*
G36*
X3875240Y1115240D02*
Y786360D01*
X7874120D01*
Y1115240D01*
X7848380D01*
G75*
G02*
X7242100I-303140J0D01*
G01*
X6346680D01*
G75*
G02*
X6163800I-91440J0D01*
G01*
X5170840D01*
Y899640D01*
X4959640D01*
Y1115240D01*
X3875240D01*
G37*
Y1715240D02*
G36*
X3875240Y1715240D02*
Y1115240D01*
X4959640D01*
Y1170840D01*
X5170840D01*
Y1115240D01*
X6163800D01*
G75*
G02*
X6346680I91440J0D01*
G01*
X7242100D01*
G75*
G02*
X7848380I303140J0D01*
G01*
X7874120D01*
Y1715240D01*
X7045880D01*
G75*
G02*
X6604600I-220640J0D01*
G01*
X6285880D01*
G75*
G02*
X5844600I-220640J0D01*
G01*
X3875240D01*
G37*
X3765240Y2444640D02*
G36*
X3765240Y2444640D02*
Y2215840D01*
X3805840D01*
Y2065240D01*
X4755240D01*
Y1835240D01*
X3875240D01*
Y1715240D01*
X5844600D01*
G75*
G02*
X6285880I220640J0D01*
G01*
X6604600D01*
G75*
G02*
X7045880I220640J0D01*
G01*
X7874120D01*
Y2545240D01*
X7642870D01*
G75*
G02*
X7467610I-87630J110000D01*
G01*
X6546680D01*
G75*
G02*
X6363800I-91440J0D01*
G01*
X5386680D01*
G75*
G02*
X5203800I-91440J0D01*
G01*
X4920840D01*
Y2444640D01*
X4425880D01*
Y2362480D01*
G75*
G02*
X4495880Y2235240I-80680J-127260D01*
G01*
G75*
G02*
X4194600I-150640J0D01*
G01*
G75*
G02*
X4264600Y2362480I150680J-20D01*
G01*
Y2444640D01*
X3765240D01*
G37*
X4495880Y2895240D02*
G36*
X4495880Y2895240D02*
Y2771310D01*
X4629810Y2905240D01*
X4495260D01*
G75*
G02*
X4495880Y2895240I-80040J-9980D01*
G01*
G37*
X4890680Y2905240D02*
G36*
X4890680Y2905240D02*
X4631270Y2645840D01*
X4920840D01*
Y2545240D01*
X5203800D01*
G75*
G02*
X5386680I91440J0D01*
G01*
X6363800D01*
G75*
G02*
X6546680I91440J0D01*
G01*
X7467610D01*
G75*
G02*
X7414600Y2655240I87630J110000D01*
G01*
G75*
G02*
Y2655250I114590J10D01*
G01*
G75*
G02*
X7490780Y2780240I140620J0D01*
G01*
G75*
G02*
X7440020Y2824600I64370J124870D01*
G01*
X7208640D01*
X7142260Y2758220D01*
G75*
G02*
X7085190Y2734600I-57020J57010D01*
G01*
X5752480D01*
G75*
G02*
X5474600Y2815240I-127240J80640D01*
G01*
G75*
G02*
X5504440Y2905240I150640J0D01*
G01*
X4890680D01*
G37*
X5746040D02*
G36*
X5746040Y2905240D02*
G75*
G02*
X5752480Y2895880I-120800J-90010D01*
G01*
X7051840D01*
X7061200Y2905240D01*
X5746040D01*
G37*
X7695880Y2655240D02*
G36*
X7695880Y2655240D02*
G75*
G02*
X7642870Y2545240I-140640J0D01*
G01*
X7874120D01*
Y2905240D01*
X7695880D01*
G75*
G02*
X7619700Y2780240I-140640J0D01*
G01*
G75*
G02*
X7695880Y2655250I-64440J-124990D01*
G01*
G75*
G02*
Y2655240I-114590J0D01*
G01*
G37*
X4328580Y3013150D02*
G36*
X4328580Y3013150D02*
Y3005840D01*
X4357800D01*
G75*
G02*
X4360340Y3005880I2540J-80640D01*
G01*
X4385190D01*
G75*
G02*
X4387780Y3005840I-10J-84570D01*
G01*
X4440940D01*
Y2983550D01*
G75*
G02*
X4442260Y2982260I-82570J-85810D01*
G01*
X4472260Y2952260D01*
G75*
G02*
X4495260Y2905240I-57030J-57030D01*
G01*
X4629810D01*
X4641900Y2917330D01*
Y3033150D01*
X4557520Y3117520D01*
G75*
G02*
X4543160Y3143730I37800J37750D01*
G01*
G75*
G02*
X4514830Y3199640I52110J61540D01*
G01*
X4514640D01*
Y3265840D01*
X4514830D01*
G75*
G02*
X4541900Y3320670I80380J-5590D01*
G01*
Y3385240D01*
X4320680D01*
X4342960Y3362960D01*
G75*
G02*
X4358580Y3325240I-37760J-37730D01*
G01*
Y3320670D01*
G75*
G02*
X4385650Y3265840I-53310J-60420D01*
G01*
X4385840D01*
Y3199640D01*
X4385650D01*
G75*
G02*
X4358580Y3144810I-80380J5590D01*
G01*
Y3065240D01*
G75*
G02*
X4342960Y3027520I-53380J10D01*
G01*
X4328580Y3013150D01*
G37*
X4648580Y3385240D02*
G36*
X4648580Y3385240D02*
Y3320670D01*
G75*
G02*
X4675650Y3265840I-53310J-60420D01*
G01*
X4675840D01*
Y3199640D01*
X4675650D01*
G75*
G02*
X4663510Y3162400I-80290J5580D01*
G01*
X4732960Y3092960D01*
G75*
G02*
X4748580Y3055240I-37760J-37730D01*
G01*
Y2914010D01*
X4821900Y2987330D01*
Y3144810D01*
G75*
G02*
X4794830Y3199640I53310J60420D01*
G01*
X4794640D01*
Y3265840D01*
X4794830D01*
G75*
G02*
X4821900Y3320670I80380J-5590D01*
G01*
Y3385240D01*
X4648580D01*
G37*
X4912960Y2927520D02*
G36*
X4912960Y2927520D02*
X4890680Y2905240D01*
X5504440D01*
G75*
G02*
X5746040I120800J-90010D01*
G01*
X7061200D01*
X7118220Y2962260D01*
G75*
G02*
X7175290Y2985880I57020J-57010D01*
G01*
X7440020D01*
G75*
G02*
X7490780Y3030240I115130J-80510D01*
G01*
G75*
G02*
X7414600Y3155230I64440J124990D01*
G01*
G75*
G02*
Y3155240I114590J10D01*
G01*
G75*
G02*
X7695880I140640J0D01*
G01*
G75*
G02*
Y3155230I-114590J0D01*
G01*
G75*
G02*
X7619700Y3030240I-140620J0D01*
G01*
G75*
G02*
X7695880Y2905240I-64460J-125000D01*
G01*
X7874120D01*
Y3385240D01*
X7045880D01*
G75*
G02*
X6604600I-220640J0D01*
G01*
X6285880D01*
G75*
G02*
X5844600I-220640J0D01*
G01*
X4928580D01*
Y3320670D01*
G75*
G02*
X4955650Y3265840I-53310J-60420D01*
G01*
X4955840D01*
Y3199640D01*
X4955650D01*
G75*
G02*
X4928580Y3144810I-80380J5590D01*
G01*
Y2965240D01*
G75*
G02*
X4912960Y2927520I-53380J10D01*
G01*
G37*
X1699800Y4465240D02*
G36*
X1699800Y4465240D02*
X1649280D01*
X1808640Y4305880D01*
X3944940D01*
Y4342040D01*
X4179240D01*
Y4108440D01*
X4142710D01*
Y3861810D01*
X4222290Y3782230D01*
G75*
G02*
X4405880Y3635240I32950J-146990D01*
G01*
G75*
G02*
Y3635230I-286480J0D01*
G01*
G75*
G02*
X4216160Y3489760I-150630J0D01*
G01*
X4320680Y3385240D01*
X4541900D01*
Y3833150D01*
X4460040Y3915010D01*
G75*
G02*
X4353800Y4005240I-14790J90240D01*
G01*
G75*
G02*
X4536680I91440J0D01*
G01*
G75*
G02*
Y4005180I-85940J-30D01*
G01*
G75*
G02*
X4535470Y3990440I-90360J0D01*
G01*
X4632960Y3892960D01*
G75*
G02*
X4648580Y3855240I-37760J-37730D01*
G01*
Y3385240D01*
X4821900D01*
Y3583150D01*
X4667520Y3737520D01*
G75*
G02*
X4651900Y3775240I37760J37730D01*
G01*
Y4141840D01*
G75*
G02*
X4453230Y4225240I-81830J83400D01*
G01*
G75*
G02*
X4516730Y4329190I116850J-10D01*
G01*
Y4463150D01*
X4514640Y4465240D01*
X4340680D01*
X4353790Y4452130D01*
G75*
G02*
X4369410Y4414410I-37760J-37730D01*
G01*
Y4329190D01*
G75*
G02*
X4432910Y4225240I-53340J-103950D01*
G01*
G75*
G02*
X4316070Y4108400I-116840J0D01*
G01*
G75*
G02*
X4199230Y4225240I0J116840D01*
G01*
G75*
G02*
X4262730Y4329190I116840J0D01*
G01*
Y4392320D01*
X4223150Y4431900D01*
X1755300D01*
G75*
G02*
X1717520Y4447520I-60J53360D01*
G01*
X1699800Y4465240D01*
G37*
X4623410D02*
G36*
X4623410Y4465240D02*
Y4329190D01*
G75*
G02*
X4651900Y4308640I-53460J-104140D01*
G01*
Y4465240D01*
X4623410D01*
G37*
X4758580Y4128480D02*
G36*
X4758580Y4128480D02*
Y3797330D01*
X4912960Y3642960D01*
G75*
G02*
X4928580Y3605240I-37760J-37730D01*
G01*
Y3385240D01*
X5844600D01*
G75*
G02*
X6285880I220640J0D01*
G01*
X6604600D01*
G75*
G02*
X7045880I220640J0D01*
G01*
X7874120D01*
Y4465240D01*
X7698580D01*
Y4329140D01*
G75*
G02*
X7785840Y4213240I-33340J-115900D01*
G01*
G75*
G02*
X7665240Y4092640I-120600J0D01*
G01*
X7625240D01*
G75*
G02*
X7504640Y4213240I0J120600D01*
G01*
G75*
G02*
X7591900Y4329140I120600J0D01*
G01*
Y4465240D01*
X7395880D01*
G75*
G02*
X7134600I-130640J0D01*
G01*
X4758580D01*
Y4322000D01*
G75*
G02*
X4940910Y4225240I65490J-96760D01*
G01*
G75*
G02*
X4758580Y4128480I-116840J0D01*
G01*
G37*
X1401910Y4784240D02*
G36*
X1401910Y4784240D02*
X1330280D01*
X1649280Y4465240D01*
X1699800D01*
X1417520Y4747520D01*
G75*
G02*
X1401910Y4784240I37760J37730D01*
G01*
G37*
X1531670D02*
G36*
X1531670Y4784240D02*
X1777330Y4538580D01*
X4245180D01*
G75*
G02*
X4282960Y4522960I60J-53360D01*
G01*
X4340680Y4465240D01*
X4514640D01*
X4437980Y4541900D01*
X3595300D01*
G75*
G02*
X3557520Y4557520I-60J53360D01*
G01*
X3377520Y4737520D01*
G75*
G02*
X3361900Y4775240I37760J37730D01*
G01*
Y4784240D01*
X1531670D01*
G37*
X3481670D02*
G36*
X3481670Y4784240D02*
X3617330Y4648580D01*
X4460010D01*
G75*
G02*
X4497790Y4632960I60J-53360D01*
G01*
X4607790Y4522960D01*
G75*
G02*
X4623410Y4485240I-37760J-37730D01*
G01*
Y4465240D01*
X4651900D01*
Y4784240D01*
X4527950D01*
G75*
G02*
X4536680Y4745250I-82690J-38990D01*
G01*
G75*
G02*
Y4745240I-95490J0D01*
G01*
G75*
G02*
X4353800I-91440J0D01*
G01*
G75*
G02*
Y4745250I95490J10D01*
G01*
G75*
G02*
X4362530Y4784240I91420J0D01*
G01*
X3481670D01*
G37*
X4758580D02*
G36*
X4758580Y4784240D02*
Y4465240D01*
X7134600D01*
G75*
G02*
X7395880I130640J0D01*
G01*
X7591900D01*
Y4784240D01*
X7389280D01*
G75*
G02*
X7141200I-124040J41000D01*
G01*
X4758580D01*
G37*
X7698580D02*
G36*
X7698580Y4784240D02*
Y4465240D01*
X7874120D01*
Y4784240D01*
X7698580D01*
G37*
X1315880Y5065240D02*
G36*
X1315880Y5065240D02*
Y4798640D01*
X1330280Y4784240D01*
X1401910D01*
G75*
G02*
X1401900Y4785240I53390J1030D01*
G01*
Y5065240D01*
X1315880D01*
G37*
X1508580D02*
G36*
X1508580Y5065240D02*
Y4807330D01*
X1531670Y4784240D01*
X3361900D01*
Y5065240D01*
X3035880D01*
G75*
G02*
X2594600I-220640J0D01*
G01*
X2275880D01*
G75*
G02*
X1834600I-220640J0D01*
G01*
X1721620D01*
G75*
G02*
X1548860I-86380J30000D01*
G01*
X1508580D01*
G37*
X3468580D02*
G36*
X3468580Y5065240D02*
Y4797330D01*
X3481670Y4784240D01*
X4362530D01*
G75*
G02*
X4391900Y4819510I82690J-38990D01*
G01*
Y5065240D01*
X3468580D01*
G37*
X4498580D02*
G36*
X4498580Y5065240D02*
Y4819510D01*
G75*
G02*
X4527950Y4784240I-53320J-74260D01*
G01*
X4651900D01*
Y5065240D01*
X4498580D01*
G37*
X4758580D02*
G36*
X4758580Y5065240D02*
Y4784240D01*
X7141200D01*
G75*
G02*
X7134600Y4825240I124050J41000D01*
G01*
G75*
G02*
X7395880I130640J0D01*
G01*
G75*
G02*
X7389280Y4784240I-130650J0D01*
G01*
X7591900D01*
Y4961340D01*
G75*
G02*
X7505240Y5065240I33340J115900D01*
G01*
X7045880D01*
G75*
G02*
X6604600I-220640J0D01*
G01*
X6285880D01*
G75*
G02*
X5844600I-220640J0D01*
G01*
X4758580D01*
G37*
X7698580Y4961340D02*
G36*
X7698580Y4961340D02*
Y4784240D01*
X7874120D01*
Y5065240D01*
X7785240D01*
G75*
G02*
X7698580Y4961340I-120000J12000D01*
G01*
G37*
X1315880Y5255240D02*
G36*
X1315880Y5255240D02*
Y5065240D01*
X1401900D01*
Y5255240D01*
X1315880D01*
G37*
X1508580D02*
G36*
X1508580Y5255240D02*
Y5065240D01*
X1548860D01*
G75*
G02*
X1543800Y5095240I86380J30000D01*
G01*
G75*
G02*
X1726680I91440J0D01*
G01*
G75*
G02*
X1721620Y5065240I-91440J0D01*
G01*
X1834600D01*
G75*
G02*
X1943070Y5255240I220640J0D01*
G01*
X1508580D01*
G37*
X2167410D02*
G36*
X2167410Y5255240D02*
G75*
G02*
X2275880Y5065240I-112170J-190000D01*
G01*
X2594600D01*
G75*
G02*
X2703070Y5255240I220640J0D01*
G01*
X2167410D01*
G37*
X2927410D02*
G36*
X2927410Y5255240D02*
G75*
G02*
X3035880Y5065240I-112170J-190000D01*
G01*
X3361900D01*
Y5255240D01*
X3246680D01*
G75*
G02*
X3063800I-91440J0D01*
G01*
X2927410D01*
G37*
X3468580D02*
G36*
X3468580Y5255240D02*
Y5065240D01*
X4391900D01*
Y5255240D01*
X3468580D01*
G37*
X4498580D02*
G36*
X4498580Y5255240D02*
Y5065240D01*
X4651900D01*
Y5255240D01*
X4498580D01*
G37*
X4758580Y5233150D02*
G36*
X4758580Y5233150D02*
Y5065240D01*
X5844600D01*
G75*
G02*
X5953070Y5255240I220640J0D01*
G01*
X4780670D01*
X4758580Y5233150D01*
G37*
X6177410Y5255240D02*
G36*
X6177410Y5255240D02*
G75*
G02*
X6285880Y5065240I-112170J-190000D01*
G01*
X6604600D01*
G75*
G02*
X6713070Y5255240I220640J0D01*
G01*
X6177410D01*
G37*
X6937410D02*
G36*
X6937410Y5255240D02*
G75*
G02*
X7045880Y5065240I-112170J-190000D01*
G01*
X7505240D01*
G75*
G02*
X7504640Y5077240I120010J12020D01*
G01*
G75*
G02*
X7577000Y5187770I120600J0D01*
G01*
Y5255240D01*
X6937410D01*
G37*
X7683680D02*
G36*
X7683680Y5255240D02*
Y5196420D01*
G75*
G02*
X7785840Y5077240I-18440J-119180D01*
G01*
G75*
G02*
X7785240Y5065240I-120610J20D01*
G01*
X7874120D01*
Y5255240D01*
X7683680D01*
G37*
X1315880Y5395240D02*
G36*
X1315880Y5395240D02*
Y5255240D01*
X1401900D01*
Y5395240D01*
X1315880D01*
G37*
X1508580D02*
G36*
X1508580Y5395240D02*
Y5255240D01*
X1943070D01*
G75*
G02*
X2167410I112170J-190000D01*
G01*
X2703070D01*
G75*
G02*
X2927410I112170J-190000D01*
G01*
X3063800D01*
G75*
G02*
X3246680I91440J0D01*
G01*
X3361900D01*
Y5395240D01*
X2545840D01*
Y5374640D01*
X2384640D01*
Y5395240D01*
X2380740D01*
Y5374640D01*
X2302680D01*
G75*
G02*
X2297600I-2540J80640D01*
G01*
X2219540D01*
Y5395240D01*
X1721350D01*
G75*
G02*
X1569130I-76110J130000D01*
G01*
X1508580D01*
G37*
X3468580D02*
G36*
X3468580Y5395240D02*
Y5255240D01*
X4391900D01*
Y5305240D01*
G75*
G02*
X4407520Y5342960I53380J-10D01*
G01*
X4459810Y5395240D01*
X4087470D01*
G75*
G02*
X4096680Y5355240I-82230J-39990D01*
G01*
G75*
G02*
X3913800I-91440J0D01*
G01*
G75*
G02*
X3923010Y5395240I91440J10D01*
G01*
X3468580D01*
G37*
X4498580Y5283150D02*
G36*
X4498580Y5283150D02*
Y5255240D01*
X4651900D01*
G75*
G02*
X4667520Y5292960I53380J-10D01*
G01*
X4769810Y5395240D01*
X4664230D01*
G75*
G02*
X4580440Y5365010I-69000J60010D01*
G01*
X4498580Y5283150D01*
G37*
X4912960Y5387520D02*
G36*
X4912960Y5387520D02*
X4780670Y5255240D01*
X5953070D01*
G75*
G02*
X6177410I112170J-190000D01*
G01*
X6713070D01*
G75*
G02*
X6937410I112170J-190000D01*
G01*
X7577000D01*
Y5314640D01*
X7549740D01*
Y5395240D01*
X7545840D01*
Y5314640D01*
X7384640D01*
Y5395240D01*
X4919350D01*
G75*
G02*
X4912960Y5387520I-44140J30030D01*
G01*
G37*
X7683680Y5314640D02*
G36*
X7683680Y5314640D02*
Y5255240D01*
X7874120D01*
Y5395240D01*
X7710940D01*
Y5314640D01*
X7683680D01*
G37*
X1195880Y6243240D02*
G36*
X1195880Y6243240D02*
Y6138640D01*
X1238640Y6095880D01*
X1364440D01*
Y6132040D01*
X1599740D01*
Y5898440D01*
X1562630D01*
G75*
G02*
X1539090Y5845050I-80530J3620D01*
G01*
X1315880Y5621840D01*
Y5395240D01*
X1401900D01*
Y5615240D01*
G75*
G02*
X1417520Y5652960I53380J-10D01*
G01*
X1678270Y5913700D01*
G75*
G02*
X1619230Y6015240I57800J101540D01*
G01*
G75*
G02*
X1736070Y6132080I116840J0D01*
G01*
G75*
G02*
X1852910Y6015240I0J-116840D01*
G01*
G75*
G02*
X1788580Y5910860I-116850J0D01*
G01*
Y5857330D01*
X1857330Y5788580D01*
X2405180D01*
G75*
G02*
X2442960Y5772960I60J-53360D01*
G01*
X2502960Y5712960D01*
G75*
G02*
X2517520Y5685840I-37730J-37720D01*
G01*
X2545840D01*
Y5508580D01*
X2833150D01*
X2847520Y5522960D01*
G75*
G02*
X2885300Y5538580I37720J-37740D01*
G01*
X3103150D01*
X3339810Y5775240D01*
X3283150Y5831900D01*
X2045240D01*
G75*
G02*
X2007490Y5847560I10J53350D01*
G01*
X1952380Y5902640D01*
G75*
G02*
X1949590Y5905630I41860J41860D01*
G01*
G75*
G02*
X1873230Y6015240I40500J109610D01*
G01*
G75*
G02*
X1878850Y6051030I116860J-10D01*
G01*
X1839520Y6090350D01*
G75*
G02*
X1823900Y6128070I37760J37730D01*
G01*
Y6243240D01*
X1195880D01*
G37*
X1508580Y5461860D02*
G36*
X1508580Y5461860D02*
Y5395240D01*
X1569130D01*
G75*
G02*
X1508580Y5461860I76110J130000D01*
G01*
G37*
X1772480Y5444600D02*
G36*
X1772480Y5444600D02*
G75*
G02*
X1721350Y5395240I-127240J80640D01*
G01*
X2219540D01*
Y5452700D01*
G75*
G02*
X2219500Y5455240I80640J2540D01*
G01*
Y5524600D01*
X2098640D01*
X2042260Y5468220D01*
G75*
G02*
X1985190Y5444600I-57020J57010D01*
G01*
X1772480D01*
G37*
X1930580Y6243240D02*
G36*
X1930580Y6243240D02*
Y6150160D01*
X1954280Y6126460D01*
G75*
G02*
X2106910Y6015230I35780J-111230D01*
G01*
G75*
G02*
X2078250Y5938580I-116850J10D01*
G01*
X2155890D01*
G75*
G02*
X2127230Y6015240I88190J76660D01*
G01*
G75*
G02*
X2244070Y6132080I116840J0D01*
G01*
G75*
G02*
X2360910Y6015240I0J-116840D01*
G01*
G75*
G02*
X2332250Y5938580I-116850J0D01*
G01*
X3305180D01*
G75*
G02*
X3342960Y5922960I60J-53360D01*
G01*
X3452960Y5812960D01*
G75*
G02*
X3455000Y5810800I-55740J-54690D01*
G01*
G75*
G02*
X3468580Y5775240I-39770J-35560D01*
G01*
Y5395240D01*
X3923010D01*
G75*
G02*
X4087470I82230J-40000D01*
G01*
X4459810D01*
X4505010Y5440440D01*
G75*
G02*
X4503800Y5455180I89150J14740D01*
G01*
G75*
G02*
Y5455240I85940J30D01*
G01*
G75*
G02*
X4686680I91440J0D01*
G01*
G75*
G02*
X4664230Y5395240I-91450J20D01*
G01*
X4769810D01*
X4821900Y5447330D01*
Y5520970D01*
G75*
G02*
X4783800Y5595230I53320J74260D01*
G01*
G75*
G02*
Y5595240I95490J10D01*
G01*
G75*
G02*
X4966680I91440J0D01*
G01*
G75*
G02*
Y5595230I-95490J0D01*
G01*
G75*
G02*
X4928580Y5520970I-91420J0D01*
G01*
Y5425240D01*
G75*
G02*
X4919350Y5395240I-53370J0D01*
G01*
X7384640D01*
Y5475840D01*
X7545840D01*
Y5395240D01*
X7549740D01*
Y5475840D01*
X7710940D01*
Y5395240D01*
X7874120D01*
Y6243240D01*
X6641280D01*
X6732260Y6152260D01*
G75*
G02*
X6755530Y6102700I-56990J-57000D01*
G01*
G75*
G02*
X6825880Y5975240I-80330J-127480D01*
G01*
G75*
G02*
X6524600I-150640J0D01*
G01*
G75*
G02*
X6571740Y6084700I150690J-20D01*
G01*
X6458220Y6198220D01*
G75*
G02*
X6435500Y6243240I57030J57020D01*
G01*
X6155880D01*
Y6162480D01*
G75*
G02*
X6225880Y6035240I-80680J-127260D01*
G01*
G75*
G02*
X5924600I-150640J0D01*
G01*
G75*
G02*
X5994600Y6162480I150680J-20D01*
G01*
Y6243240D01*
X5862060D01*
G75*
G02*
X5628420I-116820J2000D01*
G01*
X5289840D01*
Y6135140D01*
X4908640D01*
Y6243240D01*
X4826340D01*
Y6007640D01*
X4610140D01*
Y6243240D01*
X4572340D01*
Y6007640D01*
X4356140D01*
Y6243240D01*
X4318340D01*
Y6007640D01*
X4102140D01*
Y6243240D01*
X4064340D01*
Y6007640D01*
X3848140D01*
Y6243240D01*
X3765840D01*
Y6135140D01*
X3384640D01*
Y6243240D01*
X3062080D01*
G75*
G02*
X2828400I-116840J0D01*
G01*
X1930580D01*
G37*
X2380740Y5452700D02*
G36*
X2380740Y5452700D02*
Y5395240D01*
X2384640D01*
Y5680410D01*
X2383150Y5681900D01*
X2380740D01*
Y5607780D01*
G75*
G02*
X2380780Y5605240I-80640J-2540D01*
G01*
Y5455240D01*
G75*
G02*
X2380740Y5452700I-80680J0D01*
G01*
G37*
X2545840Y5401900D02*
G36*
X2545840Y5401900D02*
Y5395240D01*
X3361900D01*
Y5646470D01*
X3162960Y5447520D01*
G75*
G02*
X3125180Y5431900I-37720J37740D01*
G01*
X2907330D01*
X2892960Y5417520D01*
G75*
G02*
X2855180Y5401900I-37720J37740D01*
G01*
X2545840D01*
G37*
X1195880Y6258440D02*
G36*
X1195880Y6258440D02*
Y6243240D01*
X1823900D01*
Y6271290D01*
G75*
G02*
X1760400Y6375240I53340J103950D01*
G01*
X1740080D01*
G75*
G02*
X1623240Y6258400I-116840J0D01*
G01*
G75*
G02*
X1506400Y6375230I0J116830D01*
G01*
G75*
G02*
Y6375240I286480J10D01*
G01*
X1486080D01*
G75*
G02*
Y6375230I-286480J0D01*
G01*
G75*
G02*
X1369240Y6258400I-116840J0D01*
G01*
G75*
G02*
X1252400Y6375230I0J116830D01*
G01*
G75*
G02*
Y6375240I286480J10D01*
G01*
X1232040D01*
Y6258440D01*
X1195880D01*
G37*
X1930580Y6271290D02*
G36*
X1930580Y6271290D02*
Y6243240D01*
X2828400D01*
G75*
G02*
X3062080I116840J0D01*
G01*
X3384640D01*
Y6351340D01*
X3765840D01*
Y6243240D01*
X3848140D01*
Y6375240D01*
X2502080D01*
G75*
G02*
Y6375230I-286480J0D01*
G01*
G75*
G02*
X2385240Y6258400I-116840J0D01*
G01*
G75*
G02*
X2268400Y6375230I0J116830D01*
G01*
G75*
G02*
Y6375240I286480J10D01*
G01*
X2248080D01*
G75*
G02*
Y6375230I-286480J0D01*
G01*
G75*
G02*
X2131240Y6258400I-116840J0D01*
G01*
G75*
G02*
X2014400Y6375230I0J116830D01*
G01*
G75*
G02*
Y6375240I286480J10D01*
G01*
X1994080D01*
G75*
G02*
X1930580Y6271290I-116840J0D01*
G01*
G37*
X4064340Y6375240D02*
G36*
X4064340Y6375240D02*
Y6243240D01*
X4102140D01*
Y6375240D01*
X4064340D01*
G37*
X4318340D02*
G36*
X4318340Y6375240D02*
Y6243240D01*
X4356140D01*
Y6375240D01*
X4318340D01*
G37*
X4572340D02*
G36*
X4572340Y6375240D02*
Y6243240D01*
X4610140D01*
Y6375240D01*
X4572340D01*
G37*
X4826340D02*
G36*
X4826340Y6375240D02*
Y6243240D01*
X4908640D01*
Y6351340D01*
X5289840D01*
Y6243240D01*
X5628420D01*
G75*
G02*
X5628400Y6245240I116920J2170D01*
G01*
G75*
G02*
X5862080I116840J0D01*
G01*
G75*
G02*
X5862060Y6243240I-116940J170D01*
G01*
X5994600D01*
Y6375240D01*
X4826340D01*
G37*
X6155880D02*
G36*
X6155880Y6375240D02*
Y6243240D01*
X6435500D01*
G75*
G02*
X6434600Y6255240I79750J12010D01*
G01*
Y6375240D01*
X6155880D01*
G37*
X6595880Y6341840D02*
G36*
X6595880Y6341840D02*
Y6288640D01*
X6641280Y6243240D01*
X7874120D01*
Y6375240D01*
X7244060D01*
G75*
G02*
X7135240Y6284600I-108820J20000D01*
G01*
G75*
G02*
X7026420Y6375240I0J110640D01*
G01*
X6629280D01*
X6595880Y6341840D01*
G37*
X1016360Y6499240D02*
G36*
X1016360Y6499240D02*
Y6492040D01*
X1232040D01*
Y6375240D01*
X1252400D01*
G75*
G02*
Y6375250I286480J10D01*
G01*
G75*
G02*
X1369240Y6492080I116840J0D01*
G01*
G75*
G02*
X1486080Y6375250I0J-116830D01*
G01*
G75*
G02*
Y6375240I-286480J0D01*
G01*
X1506400D01*
G75*
G02*
Y6375250I286480J10D01*
G01*
G75*
G02*
X1623240Y6492080I116840J0D01*
G01*
G75*
G02*
X1740080Y6375240I0J-116840D01*
G01*
X1760400D01*
G75*
G02*
X1877240Y6492080I116840J0D01*
G01*
G75*
G02*
X1994080Y6375240I0J-116840D01*
G01*
X2014400D01*
G75*
G02*
Y6375250I286480J10D01*
G01*
G75*
G02*
X2131240Y6492080I116840J0D01*
G01*
G75*
G02*
X2248080Y6375250I0J-116830D01*
G01*
G75*
G02*
Y6375240I-286480J0D01*
G01*
X2268400D01*
G75*
G02*
Y6375250I286480J10D01*
G01*
G75*
G02*
X2385240Y6492080I116840J0D01*
G01*
G75*
G02*
X2502080Y6375250I0J-116830D01*
G01*
G75*
G02*
Y6375240I-286480J0D01*
G01*
X3848140D01*
Y6463000D01*
X3765840D01*
Y6389140D01*
X3384640D01*
Y6416600D01*
X3029790D01*
G75*
G02*
X2828400Y6497240I-84550J80640D01*
G01*
G75*
G02*
X2828420Y6499240I117060J-170D01*
G01*
X1016360D01*
G37*
X4064340Y6463000D02*
G36*
X4064340Y6463000D02*
Y6375240D01*
X4102140D01*
Y6463000D01*
X4064340D01*
G37*
X4292480Y6499240D02*
G36*
X4292480Y6499240D02*
Y6478840D01*
X4318340D01*
Y6375240D01*
X4356140D01*
Y6478840D01*
X4410900D01*
Y6499240D01*
X4292480D01*
G37*
X4517580D02*
G36*
X4517580Y6499240D02*
Y6478840D01*
X4572340D01*
Y6375240D01*
X4610140D01*
Y6478840D01*
X4664900D01*
Y6499240D01*
X4517580D01*
G37*
X4771580D02*
G36*
X4771580Y6499240D02*
Y6478840D01*
X4826340D01*
Y6375240D01*
X5994600D01*
Y6499240D01*
X5862080D01*
G75*
G02*
X5642340Y6443900I-116840J0D01*
G01*
X5289840D01*
Y6389140D01*
X4908640D01*
Y6499240D01*
X4771580D01*
G37*
X6155880D02*
G36*
X6155880Y6499240D02*
Y6375240D01*
X6434600D01*
Y6499240D01*
X6155880D01*
G37*
X6753280D02*
G36*
X6753280Y6499240D02*
X6629280Y6375240D01*
X7026420D01*
G75*
G02*
X7024600Y6395240I108830J19990D01*
G01*
G75*
G02*
X7087900Y6495240I110640J0D01*
G01*
G75*
G02*
X7080240Y6499240I47390J100090D01*
G01*
X6753280D01*
G37*
X7190240D02*
G36*
X7190240Y6499240D02*
G75*
G02*
X7182580Y6495240I-55010J96000D01*
G01*
G75*
G02*
X7245880Y6395240I-47340J-100000D01*
G01*
G75*
G02*
X7244060Y6375240I-110650J-10D01*
G01*
X7874120D01*
Y6499240D01*
X7190240D01*
G37*
X1016360Y6753240D02*
G36*
X1016360Y6753240D02*
Y6499240D01*
X2828420D01*
G75*
G02*
X3029790Y6577880I116820J-2000D01*
G01*
X3384640D01*
Y6605340D01*
X3567100D01*
G75*
G02*
X3623240Y6627480I56120J-60070D01*
G01*
X3989530D01*
G75*
G02*
X3984600Y6655210I75530J27730D01*
G01*
G75*
G02*
Y6655240I85940J20D01*
G01*
Y6753240D01*
X3765840D01*
Y6643140D01*
X3384640D01*
Y6697900D01*
X3049190D01*
G75*
G02*
X2828400Y6751240I-103950J53340D01*
G01*
G75*
G02*
X2828420Y6753240I116940J-170D01*
G01*
X1016360D01*
G37*
X4145880D02*
G36*
X4145880Y6753240D02*
Y6688640D01*
X4220850Y6613680D01*
G75*
G02*
X4233480Y6603310I-45830J-68690D01*
G01*
X4268310Y6568480D01*
G75*
G02*
X4292480Y6510250I-58050J-58230D01*
G01*
G75*
G02*
Y6510240I-57300J0D01*
G01*
Y6499240D01*
X4410900D01*
Y6534240D01*
G75*
G02*
X4426520Y6571960I53380J-10D01*
G01*
X4607810Y6753240D01*
X4437640D01*
G75*
G02*
X4236840I-100400J112300D01*
G01*
X4145880D01*
G37*
X4517580Y6512150D02*
G36*
X4517580Y6512150D02*
Y6499240D01*
X4664900D01*
Y6598240D01*
G75*
G02*
X4680520Y6635960I53380J-10D01*
G01*
X4751900Y6707330D01*
Y6746470D01*
X4517580Y6512150D01*
G37*
X4771580Y6576150D02*
G36*
X4771580Y6576150D02*
Y6499240D01*
X4908640D01*
Y6605340D01*
X5289840D01*
Y6550580D01*
X5640280D01*
G75*
G02*
X5862080Y6499240I104960J-51340D01*
G01*
X5994600D01*
Y6753240D01*
X5862080D01*
G75*
G02*
X5641290Y6699900I-116840J0D01*
G01*
X5289840D01*
Y6643140D01*
X4908640D01*
Y6753240D01*
X4858580D01*
Y6685240D01*
G75*
G02*
X4842960Y6647520I-53380J10D01*
G01*
X4771580Y6576150D01*
G37*
X6155880Y6753240D02*
G36*
X6155880Y6753240D02*
Y6499240D01*
X6434600D01*
Y6753240D01*
X6155880D01*
G37*
X6595880D02*
G36*
X6595880Y6753240D02*
Y6569920D01*
X6678220Y6652260D01*
G75*
G02*
X6735290Y6675880I57020J-57010D01*
G01*
X7059490D01*
G75*
G02*
X7087900Y6695240I75810J-80720D01*
G01*
G75*
G02*
X7038310Y6741900I47380J100030D01*
G01*
X7005240D01*
G75*
G02*
X6972360Y6753240I0J53320D01*
G01*
X6595880D01*
G37*
X6768640Y6514600D02*
G36*
X6768640Y6514600D02*
X6753280Y6499240D01*
X7080240D01*
G75*
G02*
X7059490Y6514600I55060J96070D01*
G01*
X6768640D01*
G37*
X7237600Y6753240D02*
G36*
X7237600Y6753240D02*
G75*
G02*
X7182580Y6695240I-102360J42010D01*
G01*
G75*
G02*
X7245880Y6595240I-47340J-100000D01*
G01*
G75*
G02*
X7190240Y6499240I-110640J0D01*
G01*
X7874120D01*
Y6753240D01*
X7237600D01*
G37*
X1016360Y7259240D02*
G36*
X1016360Y7259240D02*
Y6753240D01*
X2828420D01*
G75*
G02*
X3049190Y6804580I116820J-2000D01*
G01*
X3384640D01*
Y6859340D01*
X3765840D01*
Y6753240D01*
X3984600D01*
Y6965240D01*
G75*
G02*
X4008220Y7022260I80650J-10D01*
G01*
X4198220Y7212260D01*
G75*
G02*
X4255290Y7235880I57020J-57010D01*
G01*
X4451840D01*
X4475200Y7259240D01*
X3908580D01*
Y6989510D01*
G75*
G02*
X3946680Y6915250I-53320J-74260D01*
G01*
G75*
G02*
Y6915240I-95490J0D01*
G01*
G75*
G02*
X3765610Y6897140I-91440J0D01*
G01*
X3384640D01*
Y6951900D01*
X3049190D01*
G75*
G02*
X2828400Y7005240I-103950J53340D01*
G01*
G75*
G02*
X3049190Y7058580I116840J0D01*
G01*
X3384640D01*
Y7113340D01*
X3765840D01*
Y6934450D01*
G75*
G02*
X3801900Y6989510I89330J-19170D01*
G01*
Y7259240D01*
X3765840D01*
Y7151140D01*
X3384640D01*
Y7205900D01*
X3049190D01*
G75*
G02*
X2828400Y7259240I-103950J53340D01*
G01*
X1016360D01*
G37*
X4145880Y6931840D02*
G36*
X4145880Y6931840D02*
Y6753240D01*
X4236840D01*
G75*
G02*
X4186600Y6865540I100400J112310D01*
G01*
G75*
G02*
X4487880I150640J0D01*
G01*
G75*
G02*
X4437640Y6753240I-150640J10D01*
G01*
X4607810D01*
X4671900Y6817330D01*
Y7225240D01*
G75*
G02*
X4671970Y7227930I60920J-240D01*
G01*
X4542260Y7098220D01*
G75*
G02*
X4485190Y7074600I-57020J57010D01*
G01*
X4288640D01*
X4145880Y6931840D01*
G37*
X4858580Y6993150D02*
G36*
X4858580Y6993150D02*
Y6753240D01*
X4908640D01*
Y6859340D01*
X5289840D01*
Y6806580D01*
X5641290D01*
G75*
G02*
X5862080Y6753240I103950J-53340D01*
G01*
X5994600D01*
Y7259240D01*
X5862060D01*
G75*
G02*
X5641290Y7207900I-116820J2000D01*
G01*
X5590750D01*
G75*
G02*
X5626680Y7135240I-55510J-72670D01*
G01*
G75*
G02*
X5588030Y7060580I-91440J0D01*
G01*
X5641290D01*
G75*
G02*
X5862080Y7007240I103950J-53340D01*
G01*
G75*
G02*
X5641290Y6953900I-116840J0D01*
G01*
X5289840D01*
Y6897140D01*
X4908640D01*
Y7043210D01*
X4858580Y6993150D01*
G37*
X6155880Y7259240D02*
G36*
X6155880Y7259240D02*
Y6753240D01*
X6434600D01*
Y7259240D01*
X6155880D01*
G37*
X6595880D02*
G36*
X6595880Y7259240D02*
Y6753240D01*
X6972360D01*
G75*
G02*
X6967450Y6757600I32880J41970D01*
G01*
X6948430Y6776620D01*
G75*
G02*
X6932730Y6814410I37630J37790D01*
G01*
Y7259240D01*
X6595880D01*
G37*
X7188580D02*
G36*
X7188580Y7259240D02*
Y7105840D01*
X7246840D01*
Y6884640D01*
X7200420D01*
G75*
G02*
X7245880Y6795240I-65180J-89400D01*
G01*
G75*
G02*
X7237600Y6753240I-110640J0D01*
G01*
X7874120D01*
Y7259240D01*
X7188580D01*
G37*
X1016360Y7465240D02*
G36*
X1016360Y7465240D02*
Y7259240D01*
X2828400D01*
G75*
G02*
X3049190Y7312580I116840J0D01*
G01*
X3384640D01*
Y7367340D01*
X3765840D01*
Y7259240D01*
X3801900D01*
Y7465240D01*
X3765840D01*
Y7405140D01*
X3384640D01*
Y7459900D01*
X3049190D01*
G75*
G02*
X2838720Y7465240I-103950J53340D01*
G01*
X1876680D01*
G75*
G02*
X1693800I-91440J0D01*
G01*
X1016360D01*
G37*
X3908580D02*
G36*
X3908580Y7465240D02*
Y7259240D01*
X4475200D01*
X4574600Y7358640D01*
Y7465240D01*
X3908580D01*
G37*
X5626680Y7385240D02*
G36*
X5626680Y7385240D02*
G75*
G02*
X5593280Y7314580I-91450J0D01*
G01*
X5641290D01*
G75*
G02*
X5862080Y7261240I103950J-53340D01*
G01*
G75*
G02*
X5862060Y7259240I-116940J170D01*
G01*
X5994600D01*
Y7411840D01*
X5971840Y7434600D01*
X5829790D01*
G75*
G02*
X5662640Y7432600I-84550J80650D01*
G01*
X5613460D01*
G75*
G02*
X5626680Y7385240I-78230J-47360D01*
G01*
G37*
X6155880Y7445240D02*
G36*
X6155880Y7445240D02*
Y7259240D01*
X6434600D01*
Y7465240D01*
X6153360D01*
G75*
G02*
X6155880Y7445240I-78130J-20000D01*
G01*
G37*
X6595880Y7465240D02*
G36*
X6595880Y7465240D02*
Y7259240D01*
X6932730D01*
Y7465240D01*
X6595880D01*
G37*
X7188580D02*
G36*
X7188580Y7465240D02*
Y7259240D01*
X7874120D01*
Y7465240D01*
X7188580D01*
G37*
X1016360Y8115240D02*
G36*
X1016360Y8115240D02*
Y7465240D01*
X1693800D01*
G75*
G02*
X1876680I91440J0D01*
G01*
X2838720D01*
G75*
G02*
X2828400Y7513240I106520J48010D01*
G01*
G75*
G02*
X3049190Y7566580I116840J0D01*
G01*
X3384640D01*
Y7621340D01*
X3765840D01*
Y7564450D01*
G75*
G02*
X3946680Y7545240I89400J-19210D01*
G01*
G75*
G02*
Y7545230I-95490J0D01*
G01*
G75*
G02*
X3908580Y7470970I-91420J0D01*
G01*
Y7465240D01*
X4574600D01*
Y7545240D01*
G75*
G02*
X4598220Y7602260I80650J-10D01*
G01*
X4728220Y7732260D01*
G75*
G02*
X4775100Y7755240I57020J-57010D01*
G01*
X3765840D01*
Y7659140D01*
X3384640D01*
Y7713900D01*
X3049190D01*
G75*
G02*
X2828400Y7767240I-103950J53340D01*
G01*
G75*
G02*
X3049190Y7820580I116840J0D01*
G01*
X3384640D01*
Y7875340D01*
X3745240D01*
Y7913140D01*
X3384640D01*
Y7967900D01*
X3049190D01*
G75*
G02*
X2828400Y8021240I-103950J53340D01*
G01*
G75*
G02*
X2875850Y8115240I116840J0D01*
G01*
X1648380D01*
G75*
G02*
X1042100I-303140J0D01*
G01*
X1016360D01*
G37*
X3014630D02*
G36*
X3014630Y8115240D02*
G75*
G02*
X3049190Y8074580I-69390J-94000D01*
G01*
X3384640D01*
Y8115240D01*
X3014630D01*
G37*
X3765840Y7526030D02*
G36*
X3765840Y7526030D02*
Y7465240D01*
X3801900D01*
Y7470970D01*
G75*
G02*
X3765840Y7526030I53270J74230D01*
G01*
G37*
X5075240Y8115240D02*
G36*
X5075240Y8115240D02*
Y7755880D01*
X5181840D01*
X5541200Y8115240D01*
X5075240D01*
G37*
X5289840Y7621340D02*
G36*
X5289840Y7621340D02*
Y7593880D01*
X5658830D01*
G75*
G02*
X5829790Y7595880I86410J-78640D01*
G01*
X6005190D01*
G75*
G02*
X6062260Y7572260I50J-80630D01*
G01*
X6132260Y7502260D01*
G75*
G02*
X6153360Y7465240I-57030J-57030D01*
G01*
X6434600D01*
Y7651840D01*
X6293390Y7793050D01*
G75*
G02*
X6269770Y7850070I57030J57030D01*
G01*
Y8030690D01*
G75*
G02*
X6233570Y8115230I80620J84540D01*
G01*
G75*
G02*
Y8115240I143240J10D01*
G01*
X6213250D01*
G75*
G02*
X6096410Y7998400I-116840J0D01*
G01*
G75*
G02*
X5979570Y8115230I0J116830D01*
G01*
G75*
G02*
Y8115240I286480J10D01*
G01*
X5769280D01*
X5275380Y7621340D01*
X5289840D01*
G37*
X6431050Y8030690D02*
G36*
X6431050Y8030690D02*
Y7883470D01*
X6572260Y7742260D01*
G75*
G02*
X6595880Y7685240I-57030J-57030D01*
G01*
Y7465240D01*
X6932730D01*
Y7712320D01*
X6640830Y8004220D01*
G75*
G02*
X6487570Y8115240I-36410J111030D01*
G01*
X6467250D01*
G75*
G02*
X6431050Y8030690I-116840J0D01*
G01*
G37*
X6721250Y8115240D02*
G36*
X6721250Y8115240D02*
G75*
G02*
X6715830Y8080080I-116840J10D01*
G01*
X6741240Y8054670D01*
Y8115240D01*
X6721250D01*
G37*
X6975540D02*
G36*
X6975540Y8115240D02*
Y8010370D01*
X7172960Y7812960D01*
G75*
G02*
X7188580Y7775240I-37760J-37730D01*
G01*
Y7465240D01*
X7874120D01*
Y8115240D01*
X7848380D01*
G75*
G02*
X7242100I-303140J0D01*
G01*
X6975540D01*
G37*
X1016360Y8444120D02*
G36*
X1016360Y8444120D02*
Y8115240D01*
X1042100D01*
G75*
G02*
X1648380I303140J0D01*
G01*
X2875850D01*
G75*
G02*
X3014630I69390J-94000D01*
G01*
X3384640D01*
Y8129340D01*
X3745240D01*
Y8167140D01*
X3384640D01*
Y8221900D01*
X3049190D01*
G75*
G02*
X2828400Y8275240I-103950J53340D01*
G01*
G75*
G02*
X3049190Y8328580I116840J0D01*
G01*
X3384640D01*
Y8383340D01*
X3745240D01*
Y8444120D01*
X1016360D01*
G37*
X5075240D02*
G36*
X5075240Y8444120D02*
Y8115240D01*
X5541200D01*
X5808220Y8382260D01*
G75*
G02*
X5865290Y8405880I57020J-57010D01*
G01*
X6140360D01*
G75*
G02*
X6197430Y8382260I50J-80630D01*
G01*
X6347640Y8232050D01*
G75*
G02*
X6350410Y8232080I3440J-189830D01*
G01*
G75*
G02*
X6467250Y8115240I0J-116840D01*
G01*
X6487570D01*
G75*
G02*
Y8115250I286480J10D01*
G01*
G75*
G02*
X6604410Y8232080I116840J0D01*
G01*
G75*
G02*
X6721250Y8115240I0J-116840D01*
G01*
X6741240D01*
Y8232040D01*
X6975540D01*
Y8115240D01*
X7242100D01*
G75*
G02*
X7848380I303140J0D01*
G01*
X7874120D01*
Y8444120D01*
X5075240D01*
G37*
X5898640Y8244600D02*
G36*
X5898640Y8244600D02*
X5769280Y8115240D01*
X5979570D01*
G75*
G02*
X6122470Y8229140I116850J-10D01*
G01*
X6107010Y8244600D01*
X5898640D01*
G37*
X6213250Y8115250D02*
G36*
X6213250Y8115250D02*
G75*
G02*
Y8115240I-190990J0D01*
G01*
X6233570D01*
G75*
G02*
X6233600Y8118010I194030J-720D01*
G01*
X6210310Y8141300D01*
G75*
G02*
X6213250Y8115250I-113900J-26050D01*
G01*
G37*
X3085240Y1135240D02*
Y771120D01*
X5485240D01*
Y1135240D01*
X5170840D01*
Y899640D01*
X4959640D01*
Y1135240D01*
X3805840D01*
Y899640D01*
X3624640D01*
Y1135240D01*
X3085240D01*
G36*
X3085240Y1135240D02*
Y771120D01*
X5485240D01*
Y1135240D01*
X5170840D01*
Y899640D01*
X4959640D01*
Y1135240D01*
X3805840D01*
Y899640D01*
X3624640D01*
Y1135240D01*
X3085240D01*
G37*
D02*
D12*
X1305740Y6375240D02*
X1252400D01*
X1369240Y6311740D02*
Y6258400D01*
Y6438740D02*
Y6492080D01*
X1432740Y6375240D02*
X1486080D01*
X1507140Y2425240D02*
X1453800D01*
X1545240Y2387140D02*
Y2333800D01*
Y2463340D02*
Y2516680D01*
X1583340Y2425240D02*
X1636680D01*
X1597140Y5095240D02*
X1543800D01*
X1635240Y5057140D02*
Y5003800D01*
Y5133340D02*
Y5186680D01*
X1673340Y5095240D02*
X1726680D01*
X1735240Y5985240D02*
Y5966070D01*
X1736070Y5965240D01*
Y6015240D01*
X1735240Y5985240D02*
Y5835240D01*
X1835240Y5735240D01*
X2405240D01*
X2465240Y5675240D01*
Y5605240D01*
X1735240Y5985240D02*
Y5895240D01*
X1455240Y5615240D01*
Y4785240D01*
X1755240Y4485240D01*
X4245240D01*
X4316070Y4414410D01*
Y4225240D01*
X1747140Y7465240D02*
X1693800D01*
X1785240Y7427140D02*
Y7373800D01*
Y7503340D02*
Y7556680D01*
X1823340Y7465240D02*
X1876680D01*
X1877240Y6375240D02*
Y6128070D01*
X1990070Y6015240D01*
X2067740Y6375240D02*
X2014400D01*
X2131240Y6311740D02*
Y6258400D01*
Y6438740D02*
Y6492080D01*
X2180570Y6015240D02*
X2127230D01*
X2194740Y6375240D02*
X2248080D01*
X2244070Y6078740D02*
Y6132080D01*
X2307570Y6015240D02*
X2360910D01*
X2881740Y6243240D02*
X2828400D01*
X2945240Y6179740D02*
Y6126400D01*
Y6306740D02*
Y6360080D01*
X3008740Y6243240D02*
X3062080D01*
X3117140Y5255240D02*
X3063800D01*
X3155240Y5217140D02*
Y5163800D01*
Y5293340D02*
Y5346680D01*
X3193340Y5255240D02*
X3246680D01*
X3277940Y2215240D02*
X3224600D01*
X3375240Y2117940D02*
Y2064600D01*
Y2312540D02*
Y2365880D01*
X3415240Y5775240D02*
X3305240Y5885240D01*
X2045240D01*
X1990070Y5940410D01*
Y6015240D01*
X3415240Y5775240D02*
X3125240Y5485240D01*
X2885240D01*
X2855240Y5455240D01*
X2465240D01*
X3437940Y6243240D02*
X3384640D01*
X3472540Y2215240D02*
X3525880D01*
X3575240Y6188440D02*
Y6135140D01*
Y6298040D02*
Y6351340D01*
Y6751240D02*
X2945240D01*
X3575240Y7005240D02*
X2945240D01*
X3575240Y7259240D02*
X2945240D01*
X3575240Y7513240D02*
X2945240D01*
X3575240Y7767240D02*
X2945240D01*
X3575240Y8021240D02*
X2945240D01*
X3575240Y8275240D02*
X2945240D01*
X3677940Y1080240D02*
X3624640D01*
X3677940D02*
X3624640D01*
X3677940Y1495240D02*
X3624640D01*
X3712540Y6243240D02*
X3765840D01*
X3715240Y952940D02*
Y899640D01*
Y952940D02*
Y899640D01*
Y1207540D02*
Y1260840D01*
Y1467940D02*
Y1414640D01*
Y1522540D02*
Y1575840D01*
X3752540Y1080240D02*
X3805840D01*
X3752540Y2115240D02*
X3805840D01*
X3855240Y6915240D02*
Y7545240D01*
X3901440Y6243240D02*
X3848140D01*
X3956240Y6060940D02*
Y6007640D01*
X3967140Y5355240D02*
X3913800D01*
X4005240Y3195240D02*
Y3115240D01*
X4075240Y3045240D01*
X4175240D01*
X4195240Y3025240D01*
Y2925240D01*
X4005240Y3270240D02*
Y3365240D01*
X3990240D01*
X3635240Y3720240D01*
Y4045240D01*
X4005240Y5317140D02*
Y5263800D01*
Y5393340D02*
Y5446680D01*
X4011040Y6243240D02*
X4064340D01*
X4043340Y5355240D02*
X4096680D01*
X4125240Y2497940D02*
Y2444640D01*
X4195240Y2925240D02*
Y2825240D01*
X4135240Y2765240D01*
X4035240D01*
X4015240Y2745240D01*
Y2545240D01*
X4305240Y3195240D02*
Y3065240D01*
X4275240Y3035240D01*
Y2765240D01*
X4235240Y2725240D01*
Y2545240D01*
X4305240Y3270240D02*
Y3325240D01*
X4175240Y3455240D01*
X4125240D01*
X4095240Y3485240D01*
X3825240Y3750240D01*
Y4045240D01*
X4445240Y4745240D02*
Y5305240D01*
X4595240Y5455240D01*
X4464240Y6243240D02*
Y6534240D01*
X4725240Y6795240D01*
Y7225240D01*
X4885240Y7385240D01*
X5535240D01*
X4570070Y4225240D02*
Y4485240D01*
X4460070Y4595240D01*
X3595240D01*
X3415240Y4775240D01*
Y5775240D01*
X4595240Y3195240D02*
Y3155240D01*
X4695240Y3055240D01*
Y2895240D01*
X4455240Y2655240D01*
Y2545240D01*
X4595240Y3270240D02*
Y3855240D01*
X4445240Y4005240D01*
X4718240Y6243240D02*
Y6598240D01*
X4805240Y6685240D01*
Y7015240D01*
X4925240Y7135240D01*
X5535240D01*
X4824070Y4161740D02*
Y4108400D01*
Y4288740D02*
Y4342080D01*
X4875240Y3195240D02*
Y2965240D01*
X4565240Y2655240D01*
Y2545240D01*
X4875240Y3270240D02*
Y3605240D01*
X4705240Y3775240D01*
Y5255240D01*
X4875240Y5425240D01*
Y5595240D01*
X4887570Y4225240D02*
X4940910D01*
X4961940Y6243240D02*
X4908640D01*
X5099240Y6188440D02*
Y6135140D01*
Y6298040D02*
Y6351340D01*
Y6497240D02*
X5743240D01*
X5745240Y6499240D01*
X5236540Y6243240D02*
X5289840D01*
X5257140Y2545240D02*
X5203800D01*
X5295240Y2507140D02*
Y2453800D01*
Y2583340D02*
Y2636680D01*
X5333340Y2545240D02*
X5386680D01*
X5681740Y6245240D02*
X5628400D01*
X5745240Y6181740D02*
Y6128400D01*
Y6308740D02*
Y6362080D01*
Y6753240D02*
X5101240D01*
X5099240Y6751240D01*
X5745240Y7007240D02*
X5101240D01*
X5099240Y7005240D01*
X5745240Y7261240D02*
X5101240D01*
X5099240Y7259240D01*
X5808740Y6245240D02*
X5862080D01*
X5897940Y5065240D02*
X5844600D01*
X6032910Y8115240D02*
X5979570D01*
X6065240Y4897940D02*
Y4844600D01*
Y5232540D02*
Y5285880D01*
X6096410Y8051740D02*
Y7998400D01*
Y8178740D02*
Y8232080D01*
X6159910Y8115240D02*
X6213250D01*
X6217140Y1115240D02*
X6163800D01*
X6232540Y5065240D02*
X6285880D01*
X6255240Y1077140D02*
Y1023800D01*
Y1153340D02*
Y1206680D01*
X6293340Y1115240D02*
X6346680D01*
X6417140Y2545240D02*
X6363800D01*
X6455240Y2507140D02*
Y2453800D01*
Y2583340D02*
Y2636680D01*
X6493340Y2545240D02*
X6546680D01*
X6604410Y8115240D02*
X6605240D01*
X6986070Y7734410D01*
Y6814410D01*
X7005240Y6795240D01*
X7135240D01*
X6657940Y5065240D02*
X6604600D01*
X6825240Y4897940D02*
Y4844600D01*
Y5232540D02*
Y5285880D01*
X6858410Y8115240D02*
Y8052070D01*
X7135240Y7775240D01*
Y6995240D01*
X6992540Y5065240D02*
X7045880D01*
X7077940Y6395240D02*
X7024600D01*
X7135240Y6337940D02*
Y6284600D01*
X7187940Y4825240D02*
X7134600D01*
X7192540Y6395240D02*
X7245880D01*
X7265240Y4747940D02*
Y4694600D01*
Y4902540D02*
Y4955880D01*
X7342540Y4825240D02*
X7395880D01*
X7437940Y5395240D02*
X7384640D01*
X7465240Y5367940D02*
Y5314640D01*
Y5422540D02*
Y5475840D01*
X7492540Y5395240D02*
X7545840D01*
X7630340D02*
Y5092140D01*
X7645240Y5077240D01*
Y4213240D01*
D02*
D15*
X1369240Y6375240D03*
X1623240D03*
X1736070Y6015240D03*
X1877240Y6375240D03*
X1990070Y6015240D03*
X2131240Y6375240D03*
X2244070Y6015240D03*
X2385240Y6375240D03*
X2945240Y6243240D03*
Y6497240D03*
Y6751240D03*
Y7005240D03*
Y7259240D03*
Y7513240D03*
Y7767240D03*
Y8021240D03*
Y8275240D03*
X4316070Y4225240D03*
X4570070D03*
X4824070D03*
X5745240Y6245240D03*
Y6499240D03*
Y6753240D03*
Y7007240D03*
Y7261240D03*
Y7515240D03*
X6096410Y8115240D03*
X6350410D03*
X6604410D03*
D02*
D26*
X1115240Y6375240D02*
Y6105240D01*
X1205240Y6015240D01*
X1482070D01*
X1369240Y6375240D02*
Y6539240D01*
X1585240Y6755240D01*
X2585240D01*
X2685240Y6655240D01*
Y6325240D01*
X2755240Y6255240D01*
X2913240D01*
X2925240Y6243240D01*
X2945240D01*
X1482070Y6015240D02*
Y5902070D01*
X1235240Y5655240D01*
Y4765240D01*
X1775240Y4225240D01*
X4062070D01*
X1645240Y5525240D02*
X1985240D01*
X2065240Y5605240D01*
X2300140D01*
X2131240Y6375240D02*
Y6268070D01*
X2244070Y6155240D01*
Y6015240D01*
X2717240D01*
X2945240Y6243240D01*
X2300140Y5455240D02*
Y5605240D01*
X3375240Y2215240D02*
X3505240Y2085240D01*
X3535240Y2115240D01*
X3715240D01*
X3575240Y6243240D02*
X2945240D01*
X3575240Y6497240D02*
X2945240D01*
X3715240Y1495240D02*
Y1080240D01*
Y1495240D02*
X3555240D01*
X3505240Y1545240D01*
Y2085240D01*
X3956240Y6243240D02*
Y5894240D01*
X4075240Y5775240D01*
X4969240D01*
X5099240Y5905240D01*
Y6243240D01*
X3956240D02*
X3575240D01*
X4062070Y4225240D02*
Y3828410D01*
X4255240Y3635240D01*
X4125240Y2545240D02*
Y2165240D01*
X4065240Y2105240D01*
X3725240D01*
X3715240Y2115240D01*
X4210240Y6243240D02*
Y6510240D01*
X4065240Y6655240D01*
Y6965240D01*
X4255240Y7155240D01*
X4485240D01*
X4655240Y7325240D01*
Y7545240D01*
X4785240Y7675240D01*
X5215240D01*
X5865240Y8325240D01*
X6140410D01*
X6350410Y8115240D01*
X4210240Y6243240D02*
Y6510240D01*
X4175240Y6545240D01*
X3623240D01*
X3575240Y6497240D01*
X4345240Y2235240D02*
Y2545240D01*
X4360340Y2925240D02*
X4385240D01*
X4415240Y2895240D01*
Y2765240D01*
X4345240Y2695240D01*
Y2545240D01*
X5099240Y7513240D02*
X5743240D01*
X5745240Y7515240D01*
Y6245240D02*
X5101240D01*
X5099240Y6243240D01*
X5745240Y7515240D02*
X6005240D01*
X6075240Y7445240D01*
Y6035240D01*
X6065240Y5065240D02*
Y5565240D01*
Y5065240D02*
X5144070D01*
X4824070Y4745240D01*
Y4225240D01*
X6065240Y5565240D02*
Y5575240D01*
X5745240Y5895240D01*
Y6245240D01*
X6096410Y8115240D02*
Y7854070D01*
X6345240Y7605240D01*
Y5845240D01*
X6065240Y5565240D01*
X6350410Y8115240D02*
Y7850070D01*
X6515240Y7685240D01*
Y6255240D01*
Y6375240D01*
X6735240Y6595240D01*
X7135240D01*
X6675240Y5975240D02*
Y6095240D01*
X6515240Y6255240D01*
X6825240Y5065240D02*
X7025240D01*
X7265240Y4825240D01*
X7135240Y6395240D02*
Y5425240D01*
X7265240Y5295240D01*
Y4825240D01*
X7465240Y5395240D02*
X7365240D01*
X7265240Y5295240D01*
X7555240Y2905240D02*
X7175240D01*
X7085240Y2815240D01*
X5625240D01*
D02*
D27*
X1645240Y5525240D03*
X3375240Y2215240D03*
X4255240Y3635240D03*
X4337240Y6865540D03*
X4345240Y2235240D03*
X5625240Y2815240D03*
X6075240Y6035240D03*
X6675240Y5975240D03*
D02*
D28*
X1545240Y2425240D03*
X1635240Y5095240D03*
X1785240Y7465240D03*
X3155240Y5255240D03*
X3635240Y4045240D03*
X3825240D03*
X3855240Y6915240D03*
Y7545240D03*
X4005240Y5355240D03*
X4445240Y4005240D03*
Y4745240D03*
X4595240Y5455240D03*
X4875240Y5595240D03*
X5295240Y2545240D03*
X5535240Y7135240D03*
Y7385240D03*
X6255240Y1115240D03*
X6455240Y2545240D03*
D02*
D29*
X7265240Y4465240D03*
Y4825240D03*
D02*
D73*
X3575240Y6243240D03*
Y6497240D03*
Y6751240D03*
Y7005240D03*
Y7259240D03*
Y7513240D03*
Y7767240D03*
Y8021240D03*
Y8275240D03*
X5099240Y6243240D03*
Y6497240D03*
Y6751240D03*
Y7005240D03*
Y7259240D03*
Y7513240D03*
D02*
D74*
X3956240Y6243240D03*
X4210240D03*
X4464240D03*
X4718240D03*
D02*
D75*
X5065240Y1035240D03*
D02*
D76*
X3715240Y2115240D03*
X4830240Y2545240D03*
D02*
D77*
X3810240D03*
X3905240D03*
X4015240D03*
X4125240D03*
X4235240D03*
X4345240D03*
X4455240D03*
X4565240D03*
X4675240D03*
D02*
D78*
X3715240Y1495240D03*
D02*
D79*
Y1080240D03*
D02*
D80*
X7555240Y2655240D03*
Y2905240D03*
Y3155240D03*
D02*
D81*
X1345240Y1115240D03*
Y8115240D03*
X7545240Y1115240D03*
Y8115240D03*
D02*
D82*
X4005240Y3270240D03*
X4305240D03*
X4595240D03*
X4875240D03*
D02*
D83*
X4005240Y3195240D03*
X4305240D03*
X4595240D03*
X4875240D03*
D02*
D84*
X2300140Y5455240D03*
Y5605240D03*
X2465240Y5455240D03*
Y5605240D03*
X4195240Y2925240D03*
X4360340D03*
X7465240Y5395240D03*
X7630340D03*
D02*
D85*
X2055240Y1715240D03*
Y3385240D03*
Y5065240D03*
X2815240Y1715240D03*
Y3385240D03*
Y5065240D03*
X6065240Y1715240D03*
Y3385240D03*
Y5065240D03*
X6825240Y1715240D03*
Y3385240D03*
Y5065240D03*
D02*
D86*
X1482070Y6015240D03*
D02*
D87*
X7135240Y6995240D03*
D02*
D88*
Y6395240D03*
Y6595240D03*
Y6795240D03*
D02*
D89*
X4062070Y4225240D03*
X6858410Y8115240D03*
D02*
D119*
X7645240Y4213240D03*
Y5077240D03*
D02*
D120*
X1115240Y6375240D03*
X0Y0D02*
M02*
